<svg width="769" height="444" viewBox="0 0 769 444" fill="none" xmlns="http://www.w3.org/2000/svg">
<rect width="769" height="444" fill="#FFF3E9"/>
<g filter="url(#filter0_d)">
<path d="M110.776 107.12C109.185 105.587 106.653 105.633 105.12 107.224L80.1364 133.143C78.6033 134.734 78.6498 137.266 80.2404 138.799C81.8309 140.332 84.3631 140.286 85.8962 138.695L108.104 115.656L131.143 137.863C132.734 139.397 135.266 139.35 136.799 137.759C138.332 136.169 138.286 133.637 136.695 132.104L110.776 107.12ZM320 430L319.096 433.897L325.114 435.292L323.925 429.23L320 430ZM408.17 190.557C410.134 191.567 412.546 190.794 413.557 188.83L430.027 156.818C431.037 154.854 430.264 152.442 428.3 151.431C426.335 150.421 423.924 151.194 422.913 153.158L408.273 181.613L379.818 166.973C377.854 165.962 375.442 166.736 374.431 168.7C373.421 170.664 374.194 173.076 376.158 174.087L408.17 190.557ZM104.001 110.073C108.038 329.717 248.523 417.532 319.096 433.897L320.904 426.103C253.477 410.468 115.962 325.483 111.999 109.926L104.001 110.073ZM323.925 429.23C306.21 338.907 298.812 265.67 298.687 209.913C298.563 153.964 305.77 116.182 316.751 96.3095C322.224 86.4047 328.239 81.6368 334.106 80.5214C339.925 79.4153 346.939 81.6529 355.023 88.8737C371.301 103.414 389.477 136.083 406.191 188.221L413.809 185.779C397.023 133.417 378.324 98.9608 360.352 82.9073C351.311 74.8313 341.856 70.9049 332.612 72.6621C323.417 74.41 315.776 81.5327 309.749 92.4404C297.73 114.193 290.562 153.723 290.688 209.931C290.813 266.33 298.29 340.093 316.075 430.77L323.925 429.23Z" fill="#622F00"/>
</g>
<g filter="url(#filter1_d)">
<path d="M432.928 399.368C433.28 399.72 433.28 400.189 432.928 400.776L429.584 404.296C429.115 404.765 428.704 404.824 428.352 404.472L385.232 368.392L378.544 368.92C378.661 373.027 378.72 379.069 378.72 387.048C378.72 394.792 378.661 400.483 378.544 404.12C378.544 404.707 378.192 405 377.488 405L372.736 404.472C372.501 404.472 372.267 404.413 372.032 404.296C371.915 404.061 371.856 403.827 371.856 403.592C371.973 399.837 372.032 393.912 372.032 385.816C372.032 369.155 371.621 351.789 370.8 333.72C370.096 315.533 369.099 299.224 367.808 284.792H367.984C369.275 284.675 371.152 284.616 373.616 284.616C382.064 284.616 390.16 285.965 397.904 288.664C405.765 291.363 412.453 295.117 417.968 299.928C423.483 304.621 427.296 309.843 429.408 315.592C431.285 320.52 432.224 325.448 432.224 330.376C432.224 339.411 428.88 347.155 422.192 353.608C415.504 359.944 406.117 364.403 394.032 366.984L432.928 399.368ZM375.024 291.304C376.784 312.307 377.957 335.949 378.544 362.232C393.328 361.293 404.827 358.008 413.04 352.376C421.253 346.627 425.36 339.176 425.36 330.024C425.36 326.035 424.597 321.928 423.072 317.704C421.429 313.011 418.144 308.669 413.216 304.68C408.288 300.691 402.421 297.523 395.616 295.176C388.811 292.712 381.947 291.421 375.024 291.304ZM481.596 284.088C494.62 349.56 501.66 389.512 502.716 403.944C502.716 404.531 502.423 404.824 501.836 404.824L496.908 405.176C496.321 405.176 496.028 404.883 496.028 404.296C495.676 400.072 494.972 394.616 493.916 387.928C490.161 388.397 485.292 388.632 479.308 388.632C471.095 388.632 463.116 388.221 455.372 387.4C453.025 392.797 450.444 398.371 447.628 404.12C447.511 404.355 447.335 404.531 447.1 404.648C446.865 404.765 446.631 404.765 446.396 404.648L441.996 402.184C441.527 401.832 441.409 401.48 441.644 401.128C444.225 395.731 446.455 390.861 448.332 386.52L446.22 386.168L447.276 379.48L450.972 380.008C457.073 364.989 462.177 349.149 466.284 332.488C470.391 315.709 473.265 299.693 474.908 284.44L481.596 284.088ZM458.012 380.888C466.225 381.709 473.089 382.12 478.604 382.12C483.649 382.12 488.401 381.827 492.86 381.24C489.927 363.405 485.233 338.12 478.78 305.384C474.673 330.493 467.751 355.661 458.012 380.888ZM617.984 286.024C618.805 310.195 619.216 331.08 619.216 348.68C619.216 368.627 618.805 387.283 617.984 404.648C617.984 405.235 617.69 405.528 617.104 405.528L612.176 405.176C611.589 405.176 611.296 404.883 611.296 404.296C612.117 386.931 612.528 368.216 612.528 348.152C612.528 332.429 612.234 314.888 611.648 295.528C599.562 309.139 587.418 320.168 575.216 328.616C557.146 320.52 538.021 308.728 517.84 293.24C517.488 307.32 517.312 321.165 517.312 334.776C517.312 359.299 517.898 382.355 519.072 403.944C519.072 404.531 518.778 404.824 518.192 404.824L513.264 405.176C512.677 405.176 512.384 404.883 512.384 404.296C511.21 383.293 510.624 360.765 510.624 336.712C510.624 321.811 510.917 304.68 511.504 285.32C511.504 284.733 511.797 284.44 512.384 284.44L518.192 284.792C537.434 300.163 556.149 312.189 574.336 320.872C586.421 312.189 598.741 300.397 611.296 285.496L617.104 285.144C617.69 285.144 617.984 285.437 617.984 286.024ZM691.333 315.592C693.21 320.52 694.149 325.448 694.149 330.376C694.149 341.288 689.397 350.205 679.893 357.128C670.389 363.933 657.248 367.864 640.469 368.92C640.586 373.027 640.645 379.069 640.645 387.048C640.645 394.792 640.586 400.483 640.469 404.12C640.469 404.707 640.117 405 639.413 405L634.661 404.472C634.426 404.472 634.192 404.413 633.957 404.296C633.84 404.061 633.781 403.827 633.781 403.592C633.898 399.837 633.957 393.912 633.957 385.816C633.957 369.155 633.546 351.789 632.725 333.72C632.021 315.533 631.024 299.224 629.733 284.792H629.909C631.2 284.675 633.077 284.616 635.541 284.616C643.989 284.616 652.085 285.965 659.829 288.664C667.69 291.363 674.378 295.117 679.893 299.928C685.408 304.621 689.221 309.843 691.333 315.592ZM640.469 362.232C655.253 361.293 666.752 358.008 674.965 352.376C683.178 346.627 687.285 339.176 687.285 330.024C687.285 326.035 686.522 321.928 684.997 317.704C683.354 313.011 680.069 308.669 675.141 304.68C670.213 300.691 664.346 297.523 657.541 295.176C650.736 292.712 643.872 291.421 636.949 291.304C638.709 312.307 639.882 335.949 640.469 362.232ZM742.159 284.088C755.183 349.56 762.223 389.512 763.279 403.944C763.279 404.531 762.985 404.824 762.399 404.824L757.471 405.176C756.884 405.176 756.591 404.883 756.591 404.296C756.239 400.072 755.535 394.616 754.479 387.928C750.724 388.397 745.855 388.632 739.871 388.632C731.657 388.632 723.679 388.221 715.935 387.4C713.588 392.797 711.007 398.371 708.191 404.12C708.073 404.355 707.897 404.531 707.663 404.648C707.428 404.765 707.193 404.765 706.959 404.648L702.559 402.184C702.089 401.832 701.972 401.48 702.207 401.128C704.788 395.731 707.017 390.861 708.895 386.52L706.783 386.168L707.839 379.48L711.535 380.008C717.636 364.989 722.74 349.149 726.847 332.488C730.953 315.709 733.828 299.693 735.471 284.44L742.159 284.088ZM718.575 380.888C726.788 381.709 733.652 382.12 739.167 382.12C744.212 382.12 748.964 381.827 753.423 381.24C750.489 363.405 745.796 338.12 739.343 305.384C735.236 330.493 728.313 355.661 718.575 380.888Z" fill="#FF7A00"/>
<path d="M432.928 399.368C433.28 399.72 433.28 400.189 432.928 400.776L429.584 404.296C429.115 404.765 428.704 404.824 428.352 404.472L385.232 368.392L378.544 368.92C378.661 373.027 378.72 379.069 378.72 387.048C378.72 394.792 378.661 400.483 378.544 404.12C378.544 404.707 378.192 405 377.488 405L372.736 404.472C372.501 404.472 372.267 404.413 372.032 404.296C371.915 404.061 371.856 403.827 371.856 403.592C371.973 399.837 372.032 393.912 372.032 385.816C372.032 369.155 371.621 351.789 370.8 333.72C370.096 315.533 369.099 299.224 367.808 284.792H367.984C369.275 284.675 371.152 284.616 373.616 284.616C382.064 284.616 390.16 285.965 397.904 288.664C405.765 291.363 412.453 295.117 417.968 299.928C423.483 304.621 427.296 309.843 429.408 315.592C431.285 320.52 432.224 325.448 432.224 330.376C432.224 339.411 428.88 347.155 422.192 353.608C415.504 359.944 406.117 364.403 394.032 366.984L432.928 399.368ZM375.024 291.304C376.784 312.307 377.957 335.949 378.544 362.232C393.328 361.293 404.827 358.008 413.04 352.376C421.253 346.627 425.36 339.176 425.36 330.024C425.36 326.035 424.597 321.928 423.072 317.704C421.429 313.011 418.144 308.669 413.216 304.68C408.288 300.691 402.421 297.523 395.616 295.176C388.811 292.712 381.947 291.421 375.024 291.304ZM481.596 284.088C494.62 349.56 501.66 389.512 502.716 403.944C502.716 404.531 502.423 404.824 501.836 404.824L496.908 405.176C496.321 405.176 496.028 404.883 496.028 404.296C495.676 400.072 494.972 394.616 493.916 387.928C490.161 388.397 485.292 388.632 479.308 388.632C471.095 388.632 463.116 388.221 455.372 387.4C453.025 392.797 450.444 398.371 447.628 404.12C447.511 404.355 447.335 404.531 447.1 404.648C446.865 404.765 446.631 404.765 446.396 404.648L441.996 402.184C441.527 401.832 441.409 401.48 441.644 401.128C444.225 395.731 446.455 390.861 448.332 386.52L446.22 386.168L447.276 379.48L450.972 380.008C457.073 364.989 462.177 349.149 466.284 332.488C470.391 315.709 473.265 299.693 474.908 284.44L481.596 284.088ZM458.012 380.888C466.225 381.709 473.089 382.12 478.604 382.12C483.649 382.12 488.401 381.827 492.86 381.24C489.927 363.405 485.233 338.12 478.78 305.384C474.673 330.493 467.751 355.661 458.012 380.888ZM617.984 286.024C618.805 310.195 619.216 331.08 619.216 348.68C619.216 368.627 618.805 387.283 617.984 404.648C617.984 405.235 617.69 405.528 617.104 405.528L612.176 405.176C611.589 405.176 611.296 404.883 611.296 404.296C612.117 386.931 612.528 368.216 612.528 348.152C612.528 332.429 612.234 314.888 611.648 295.528C599.562 309.139 587.418 320.168 575.216 328.616C557.146 320.52 538.021 308.728 517.84 293.24C517.488 307.32 517.312 321.165 517.312 334.776C517.312 359.299 517.898 382.355 519.072 403.944C519.072 404.531 518.778 404.824 518.192 404.824L513.264 405.176C512.677 405.176 512.384 404.883 512.384 404.296C511.21 383.293 510.624 360.765 510.624 336.712C510.624 321.811 510.917 304.68 511.504 285.32C511.504 284.733 511.797 284.44 512.384 284.44L518.192 284.792C537.434 300.163 556.149 312.189 574.336 320.872C586.421 312.189 598.741 300.397 611.296 285.496L617.104 285.144C617.69 285.144 617.984 285.437 617.984 286.024ZM691.333 315.592C693.21 320.52 694.149 325.448 694.149 330.376C694.149 341.288 689.397 350.205 679.893 357.128C670.389 363.933 657.248 367.864 640.469 368.92C640.586 373.027 640.645 379.069 640.645 387.048C640.645 394.792 640.586 400.483 640.469 404.12C640.469 404.707 640.117 405 639.413 405L634.661 404.472C634.426 404.472 634.192 404.413 633.957 404.296C633.84 404.061 633.781 403.827 633.781 403.592C633.898 399.837 633.957 393.912 633.957 385.816C633.957 369.155 633.546 351.789 632.725 333.72C632.021 315.533 631.024 299.224 629.733 284.792H629.909C631.2 284.675 633.077 284.616 635.541 284.616C643.989 284.616 652.085 285.965 659.829 288.664C667.69 291.363 674.378 295.117 679.893 299.928C685.408 304.621 689.221 309.843 691.333 315.592ZM640.469 362.232C655.253 361.293 666.752 358.008 674.965 352.376C683.178 346.627 687.285 339.176 687.285 330.024C687.285 326.035 686.522 321.928 684.997 317.704C683.354 313.011 680.069 308.669 675.141 304.68C670.213 300.691 664.346 297.523 657.541 295.176C650.736 292.712 643.872 291.421 636.949 291.304C638.709 312.307 639.882 335.949 640.469 362.232ZM742.159 284.088C755.183 349.56 762.223 389.512 763.279 403.944C763.279 404.531 762.985 404.824 762.399 404.824L757.471 405.176C756.884 405.176 756.591 404.883 756.591 404.296C756.239 400.072 755.535 394.616 754.479 387.928C750.724 388.397 745.855 388.632 739.871 388.632C731.657 388.632 723.679 388.221 715.935 387.4C713.588 392.797 711.007 398.371 708.191 404.12C708.073 404.355 707.897 404.531 707.663 404.648C707.428 404.765 707.193 404.765 706.959 404.648L702.559 402.184C702.089 401.832 701.972 401.48 702.207 401.128C704.788 395.731 707.017 390.861 708.895 386.52L706.783 386.168L707.839 379.48L711.535 380.008C717.636 364.989 722.74 349.149 726.847 332.488C730.953 315.709 733.828 299.693 735.471 284.44L742.159 284.088ZM718.575 380.888C726.788 381.709 733.652 382.12 739.167 382.12C744.212 382.12 748.964 381.827 753.423 381.24C750.489 363.405 745.796 338.12 739.343 305.384C735.236 330.493 728.313 355.661 718.575 380.888Z" fill="url(#paint0_linear)"/>
<path d="M432.928 399.368C433.28 399.72 433.28 400.189 432.928 400.776L429.584 404.296C429.115 404.765 428.704 404.824 428.352 404.472L385.232 368.392L378.544 368.92C378.661 373.027 378.72 379.069 378.72 387.048C378.72 394.792 378.661 400.483 378.544 404.12C378.544 404.707 378.192 405 377.488 405L372.736 404.472C372.501 404.472 372.267 404.413 372.032 404.296C371.915 404.061 371.856 403.827 371.856 403.592C371.973 399.837 372.032 393.912 372.032 385.816C372.032 369.155 371.621 351.789 370.8 333.72C370.096 315.533 369.099 299.224 367.808 284.792H367.984C369.275 284.675 371.152 284.616 373.616 284.616C382.064 284.616 390.16 285.965 397.904 288.664C405.765 291.363 412.453 295.117 417.968 299.928C423.483 304.621 427.296 309.843 429.408 315.592C431.285 320.52 432.224 325.448 432.224 330.376C432.224 339.411 428.88 347.155 422.192 353.608C415.504 359.944 406.117 364.403 394.032 366.984L432.928 399.368ZM375.024 291.304C376.784 312.307 377.957 335.949 378.544 362.232C393.328 361.293 404.827 358.008 413.04 352.376C421.253 346.627 425.36 339.176 425.36 330.024C425.36 326.035 424.597 321.928 423.072 317.704C421.429 313.011 418.144 308.669 413.216 304.68C408.288 300.691 402.421 297.523 395.616 295.176C388.811 292.712 381.947 291.421 375.024 291.304ZM481.596 284.088C494.62 349.56 501.66 389.512 502.716 403.944C502.716 404.531 502.423 404.824 501.836 404.824L496.908 405.176C496.321 405.176 496.028 404.883 496.028 404.296C495.676 400.072 494.972 394.616 493.916 387.928C490.161 388.397 485.292 388.632 479.308 388.632C471.095 388.632 463.116 388.221 455.372 387.4C453.025 392.797 450.444 398.371 447.628 404.12C447.511 404.355 447.335 404.531 447.1 404.648C446.865 404.765 446.631 404.765 446.396 404.648L441.996 402.184C441.527 401.832 441.409 401.48 441.644 401.128C444.225 395.731 446.455 390.861 448.332 386.52L446.22 386.168L447.276 379.48L450.972 380.008C457.073 364.989 462.177 349.149 466.284 332.488C470.391 315.709 473.265 299.693 474.908 284.44L481.596 284.088ZM458.012 380.888C466.225 381.709 473.089 382.12 478.604 382.12C483.649 382.12 488.401 381.827 492.86 381.24C489.927 363.405 485.233 338.12 478.78 305.384C474.673 330.493 467.751 355.661 458.012 380.888ZM617.984 286.024C618.805 310.195 619.216 331.08 619.216 348.68C619.216 368.627 618.805 387.283 617.984 404.648C617.984 405.235 617.69 405.528 617.104 405.528L612.176 405.176C611.589 405.176 611.296 404.883 611.296 404.296C612.117 386.931 612.528 368.216 612.528 348.152C612.528 332.429 612.234 314.888 611.648 295.528C599.562 309.139 587.418 320.168 575.216 328.616C557.146 320.52 538.021 308.728 517.84 293.24C517.488 307.32 517.312 321.165 517.312 334.776C517.312 359.299 517.898 382.355 519.072 403.944C519.072 404.531 518.778 404.824 518.192 404.824L513.264 405.176C512.677 405.176 512.384 404.883 512.384 404.296C511.21 383.293 510.624 360.765 510.624 336.712C510.624 321.811 510.917 304.68 511.504 285.32C511.504 284.733 511.797 284.44 512.384 284.44L518.192 284.792C537.434 300.163 556.149 312.189 574.336 320.872C586.421 312.189 598.741 300.397 611.296 285.496L617.104 285.144C617.69 285.144 617.984 285.437 617.984 286.024ZM691.333 315.592C693.21 320.52 694.149 325.448 694.149 330.376C694.149 341.288 689.397 350.205 679.893 357.128C670.389 363.933 657.248 367.864 640.469 368.92C640.586 373.027 640.645 379.069 640.645 387.048C640.645 394.792 640.586 400.483 640.469 404.12C640.469 404.707 640.117 405 639.413 405L634.661 404.472C634.426 404.472 634.192 404.413 633.957 404.296C633.84 404.061 633.781 403.827 633.781 403.592C633.898 399.837 633.957 393.912 633.957 385.816C633.957 369.155 633.546 351.789 632.725 333.72C632.021 315.533 631.024 299.224 629.733 284.792H629.909C631.2 284.675 633.077 284.616 635.541 284.616C643.989 284.616 652.085 285.965 659.829 288.664C667.69 291.363 674.378 295.117 679.893 299.928C685.408 304.621 689.221 309.843 691.333 315.592ZM640.469 362.232C655.253 361.293 666.752 358.008 674.965 352.376C683.178 346.627 687.285 339.176 687.285 330.024C687.285 326.035 686.522 321.928 684.997 317.704C683.354 313.011 680.069 308.669 675.141 304.68C670.213 300.691 664.346 297.523 657.541 295.176C650.736 292.712 643.872 291.421 636.949 291.304C638.709 312.307 639.882 335.949 640.469 362.232ZM742.159 284.088C755.183 349.56 762.223 389.512 763.279 403.944C763.279 404.531 762.985 404.824 762.399 404.824L757.471 405.176C756.884 405.176 756.591 404.883 756.591 404.296C756.239 400.072 755.535 394.616 754.479 387.928C750.724 388.397 745.855 388.632 739.871 388.632C731.657 388.632 723.679 388.221 715.935 387.4C713.588 392.797 711.007 398.371 708.191 404.12C708.073 404.355 707.897 404.531 707.663 404.648C707.428 404.765 707.193 404.765 706.959 404.648L702.559 402.184C702.089 401.832 701.972 401.48 702.207 401.128C704.788 395.731 707.017 390.861 708.895 386.52L706.783 386.168L707.839 379.48L711.535 380.008C717.636 364.989 722.74 349.149 726.847 332.488C730.953 315.709 733.828 299.693 735.471 284.44L742.159 284.088ZM718.575 380.888C726.788 381.709 733.652 382.12 739.167 382.12C744.212 382.12 748.964 381.827 753.423 381.24C750.489 363.405 745.796 338.12 739.343 305.384C735.236 330.493 728.313 355.661 718.575 380.888Z" fill="url(#paint1_linear)"/>
<path d="M432.928 399.368L433.635 398.661C433.614 398.639 433.591 398.619 433.568 398.599L432.928 399.368ZM432.928 400.776L433.653 401.465C433.703 401.412 433.748 401.353 433.785 401.29L432.928 400.776ZM429.584 404.296L430.291 405.003C430.297 404.997 430.303 404.991 430.309 404.985L429.584 404.296ZM428.352 404.472L429.059 403.765C429.038 403.744 429.016 403.724 428.994 403.705L428.352 404.472ZM385.232 368.392L385.874 367.625C385.673 367.457 385.414 367.374 385.153 367.395L385.232 368.392ZM378.544 368.92L378.465 367.923C377.934 367.965 377.529 368.416 377.544 368.949L378.544 368.92ZM378.544 404.12L377.545 404.088C377.544 404.099 377.544 404.109 377.544 404.12H378.544ZM377.488 405L377.378 405.994C377.414 405.998 377.451 406 377.488 406V405ZM372.736 404.472L372.846 403.478C372.81 403.474 372.773 403.472 372.736 403.472V404.472ZM372.032 404.296L371.138 404.743C371.234 404.937 371.391 405.094 371.585 405.19L372.032 404.296ZM371.856 403.592L370.856 403.561C370.856 403.571 370.856 403.582 370.856 403.592H371.856ZM370.8 333.72L369.801 333.759L369.801 333.765L370.8 333.72ZM367.808 284.792V283.792C367.527 283.792 367.26 283.91 367.07 284.117C366.881 284.324 366.787 284.601 366.812 284.881L367.808 284.792ZM367.984 284.792V285.792C368.014 285.792 368.044 285.791 368.075 285.788L367.984 284.792ZM397.904 288.664L397.575 289.608L397.579 289.61L397.904 288.664ZM417.968 299.928L417.311 300.682L417.32 300.69L417.968 299.928ZM429.408 315.592L428.469 315.937L428.474 315.948L429.408 315.592ZM422.192 353.608L422.88 354.334L422.886 354.328L422.192 353.608ZM394.032 366.984L393.823 366.006C393.449 366.086 393.153 366.373 393.061 366.744C392.969 367.116 393.098 367.508 393.392 367.753L394.032 366.984ZM375.024 291.304L375.041 290.304C374.758 290.299 374.487 290.414 374.294 290.621C374.101 290.827 374.004 291.106 374.027 291.388L375.024 291.304ZM378.544 362.232L377.544 362.254C377.55 362.527 377.667 362.785 377.868 362.969C378.068 363.153 378.336 363.247 378.607 363.23L378.544 362.232ZM413.04 352.376L413.606 353.201L413.613 353.195L413.04 352.376ZM423.072 317.704L422.128 318.034L422.131 318.044L423.072 317.704ZM413.216 304.68L413.845 303.903L413.845 303.903L413.216 304.68ZM395.616 295.176L395.276 296.116C395.28 296.118 395.285 296.12 395.29 296.121L395.616 295.176ZM432.221 400.075C432.229 400.083 432.218 400.075 432.207 400.048C432.195 400.02 432.192 399.995 432.192 399.984C432.192 399.976 432.193 399.993 432.177 400.042C432.161 400.091 432.129 400.164 432.071 400.262L433.785 401.29C434.015 400.909 434.192 400.465 434.192 399.984C434.192 399.467 433.986 399.012 433.635 398.661L432.221 400.075ZM432.203 400.087L428.859 403.607L430.309 404.985L433.653 401.465L432.203 400.087ZM428.877 403.589C428.801 403.664 428.751 403.7 428.729 403.714C428.707 403.727 428.726 403.71 428.783 403.702C428.846 403.693 428.92 403.7 428.986 403.726C429.047 403.749 429.069 403.775 429.059 403.765L427.645 405.179C427.993 405.528 428.485 405.765 429.065 405.682C429.579 405.609 429.988 405.306 430.291 405.003L428.877 403.589ZM428.994 403.705L385.874 367.625L384.59 369.159L427.71 405.239L428.994 403.705ZM385.153 367.395L378.465 367.923L378.623 369.917L385.311 369.389L385.153 367.395ZM377.544 368.949C377.661 373.041 377.72 379.072 377.72 387.048H379.72C379.72 379.067 379.661 373.013 379.544 368.891L377.544 368.949ZM377.72 387.048C377.72 394.79 377.661 400.468 377.545 404.088L379.543 404.152C379.661 400.498 379.72 394.794 379.72 387.048H377.72ZM377.544 404.12C377.544 404.169 377.537 404.166 377.55 404.134C377.556 404.117 377.567 404.095 377.584 404.072C377.601 404.049 377.62 404.028 377.64 404.012C377.68 403.978 377.704 403.975 377.682 403.981C377.658 403.988 377.598 404 377.488 404V406C377.954 406 378.49 405.907 378.92 405.548C379.385 405.161 379.544 404.62 379.544 404.12H377.544ZM377.598 404.006L372.846 403.478L372.626 405.466L377.378 405.994L377.598 404.006ZM372.736 403.472C372.674 403.472 372.592 403.458 372.479 403.402L371.585 405.19C371.942 405.369 372.329 405.472 372.736 405.472V403.472ZM372.926 403.849C372.87 403.736 372.856 403.654 372.856 403.592H370.856C370.856 403.999 370.959 404.386 371.138 404.743L372.926 403.849ZM372.856 403.623C372.973 399.852 373.032 393.913 373.032 385.816H371.032C371.032 393.911 370.973 399.823 370.856 403.561L372.856 403.623ZM373.032 385.816C373.032 369.138 372.621 351.758 371.799 333.675L369.801 333.765C370.622 351.821 371.032 369.171 371.032 385.816H373.032ZM371.799 333.681C371.095 315.482 370.097 299.155 368.804 284.703L366.812 284.881C368.101 299.293 369.097 315.585 369.801 333.759L371.799 333.681ZM367.808 285.792H367.984V283.792H367.808V285.792ZM368.075 285.788C369.319 285.675 371.16 285.616 373.616 285.616V283.616C371.144 283.616 369.23 283.675 367.893 283.796L368.075 285.788ZM373.616 285.616C381.955 285.616 389.94 286.948 397.575 289.608L398.233 287.72C390.38 284.983 382.173 283.616 373.616 283.616V285.616ZM397.579 289.61C405.335 292.272 411.906 295.967 417.311 300.682L418.625 299.174C413.001 294.268 406.196 290.453 398.229 287.718L397.579 289.61ZM417.32 300.69C422.727 305.292 426.427 310.376 428.469 315.937L430.347 315.247C428.165 309.309 424.238 303.951 418.616 299.166L417.32 300.69ZM428.474 315.948C430.311 320.77 431.224 325.578 431.224 330.376H433.224C433.224 325.318 432.26 320.27 430.342 315.236L428.474 315.948ZM431.224 330.376C431.224 339.131 427.997 346.617 421.498 352.888L422.886 354.328C429.763 347.692 433.224 339.691 433.224 330.376H431.224ZM421.504 352.882C414.988 359.055 405.788 363.45 393.823 366.006L394.241 367.962C406.446 365.355 416.02 360.833 422.88 354.334L421.504 352.882ZM393.392 367.753L432.288 400.137L433.568 398.599L394.672 366.215L393.392 367.753ZM374.027 291.388C375.785 312.366 376.958 335.987 377.544 362.254L379.544 362.21C378.957 335.911 377.783 312.248 376.021 291.22L374.027 291.388ZM378.607 363.23C393.49 362.285 405.188 358.973 413.606 353.201L412.474 351.551C404.465 357.043 393.166 360.302 378.481 361.234L378.607 363.23ZM413.613 353.195C422.064 347.28 426.36 339.537 426.36 330.024H424.36C424.36 338.815 420.442 345.974 412.467 351.557L413.613 353.195ZM426.36 330.024C426.36 325.905 425.572 321.684 424.013 317.364L422.131 318.044C423.622 322.172 424.36 326.164 424.36 330.024H426.36ZM424.016 317.374C422.297 312.463 418.878 307.977 413.845 303.903L412.587 305.457C417.41 309.361 420.562 313.559 422.128 318.034L424.016 317.374ZM413.845 303.903C408.815 299.831 402.843 296.61 395.942 294.231L395.29 296.121C402 298.435 407.761 301.55 412.587 305.457L413.845 303.903ZM395.956 294.236C389.052 291.736 382.079 290.423 375.041 290.304L375.007 292.304C381.814 292.419 388.569 293.688 395.276 296.116L395.956 294.236ZM481.596 284.088L482.577 283.893C482.48 283.406 482.04 283.063 481.544 283.089L481.596 284.088ZM502.716 403.944H503.716C503.716 403.92 503.715 403.895 503.713 403.871L502.716 403.944ZM501.836 404.824V403.824C501.812 403.824 501.789 403.825 501.765 403.827L501.836 404.824ZM496.908 405.176V406.176C496.932 406.176 496.956 406.175 496.979 406.173L496.908 405.176ZM496.028 404.296H497.028C497.028 404.268 497.027 404.241 497.025 404.213L496.028 404.296ZM493.916 387.928L494.904 387.772C494.82 387.239 494.328 386.869 493.792 386.936L493.916 387.928ZM455.372 387.4L455.478 386.406C455.043 386.36 454.629 386.601 454.455 387.001L455.372 387.4ZM447.628 404.12L448.523 404.567L448.526 404.56L447.628 404.12ZM447.1 404.648L446.653 403.754L446.653 403.754L447.1 404.648ZM446.396 404.648L445.908 405.521C445.921 405.528 445.935 405.535 445.949 405.542L446.396 404.648ZM441.996 402.184L441.396 402.984C441.432 403.011 441.469 403.035 441.508 403.057L441.996 402.184ZM441.644 401.128L442.476 401.683C442.502 401.643 442.526 401.602 442.546 401.559L441.644 401.128ZM448.332 386.52L449.25 386.917C449.372 386.635 449.357 386.312 449.21 386.042C449.063 385.772 448.8 385.584 448.497 385.534L448.332 386.52ZM446.22 386.168L445.232 386.012C445.147 386.554 445.514 387.064 446.056 387.154L446.22 386.168ZM447.276 379.48L447.418 378.49C446.876 378.413 446.374 378.784 446.288 379.324L447.276 379.48ZM450.972 380.008L450.831 380.998C451.285 381.063 451.726 380.81 451.899 380.384L450.972 380.008ZM466.284 332.488L467.255 332.727L467.255 332.726L466.284 332.488ZM474.908 284.44L474.856 283.441C474.365 283.467 473.966 283.845 473.914 284.333L474.908 284.44ZM458.012 380.888L457.079 380.528C456.967 380.819 456.997 381.146 457.16 381.412C457.324 381.678 457.602 381.852 457.913 381.883L458.012 380.888ZM492.86 381.24L492.991 382.231C493.259 382.196 493.502 382.053 493.663 381.836C493.825 381.619 493.891 381.345 493.847 381.078L492.86 381.24ZM478.78 305.384L479.761 305.191C479.668 304.716 479.248 304.376 478.764 304.384C478.28 304.392 477.871 304.745 477.793 305.223L478.78 305.384ZM480.615 284.283C493.645 349.784 500.668 389.662 501.719 404.017L503.713 403.871C502.652 389.362 495.595 349.336 482.577 283.893L480.615 284.283ZM501.716 403.944C501.716 404.01 501.707 404.028 501.712 404.013C501.719 403.993 501.74 403.946 501.789 403.897C501.838 403.848 501.885 403.827 501.905 403.82C501.92 403.815 501.902 403.824 501.836 403.824V405.824C502.284 405.824 502.803 405.711 503.203 405.311C503.604 404.911 503.716 404.391 503.716 403.944H501.716ZM501.765 403.827L496.837 404.179L496.979 406.173L501.907 405.821L501.765 403.827ZM496.908 404.176C496.842 404.176 496.824 404.167 496.839 404.172C496.859 404.179 496.906 404.2 496.955 404.249C497.004 404.298 497.025 404.345 497.032 404.365C497.037 404.38 497.028 404.362 497.028 404.296H495.028C495.028 404.743 495.141 405.263 495.541 405.663C495.941 406.063 496.461 406.176 496.908 406.176V404.176ZM497.025 404.213C496.67 399.955 495.962 394.472 494.904 387.772L492.928 388.084C493.983 394.76 494.682 400.189 495.032 404.379L497.025 404.213ZM493.792 386.936C490.095 387.398 485.272 387.632 479.308 387.632V389.632C485.313 389.632 490.228 389.397 494.04 388.92L493.792 386.936ZM479.308 387.632C471.128 387.632 463.185 387.223 455.478 386.406L455.267 388.394C463.048 389.22 471.061 389.632 479.308 389.632V387.632ZM454.455 387.001C452.115 392.384 449.54 397.943 446.73 403.68L448.526 404.56C451.348 398.798 453.936 393.211 456.289 387.799L454.455 387.001ZM446.734 403.673C446.713 403.714 446.694 403.733 446.653 403.754L447.547 405.542C447.976 405.328 448.308 404.995 448.523 404.567L446.734 403.673ZM446.653 403.754C446.658 403.751 446.693 403.736 446.748 403.736C446.804 403.736 446.838 403.751 446.843 403.754L445.949 405.542C446.465 405.801 447.031 405.801 447.547 405.542L446.653 403.754ZM446.885 403.775L442.485 401.311L441.508 403.057L445.908 405.521L446.885 403.775ZM442.596 401.384C442.525 401.33 442.49 401.294 442.478 401.28C442.467 401.266 442.487 401.285 442.505 401.34C442.525 401.4 442.534 401.477 442.521 401.556C442.508 401.631 442.482 401.675 442.476 401.683L440.812 400.573C440.551 400.965 440.437 401.46 440.607 401.972C440.758 402.424 441.086 402.751 441.396 402.984L442.596 401.384ZM442.546 401.559C445.132 396.154 447.367 391.272 449.25 386.917L447.414 386.123C445.543 390.45 443.319 395.308 440.742 400.697L442.546 401.559ZM448.497 385.534L446.385 385.182L446.056 387.154L448.168 387.506L448.497 385.534ZM447.208 386.324L448.264 379.636L446.288 379.324L445.232 386.012L447.208 386.324ZM447.135 380.47L450.831 380.998L451.114 379.018L447.418 378.49L447.135 380.47ZM451.899 380.384C458.019 365.319 463.138 349.433 467.255 332.727L465.313 332.249C461.217 348.866 456.128 364.66 450.046 379.632L451.899 380.384ZM467.255 332.726C471.371 315.909 474.254 299.849 475.902 284.547L473.914 284.333C472.276 299.537 469.41 315.509 465.313 332.25L467.255 332.726ZM474.961 285.439L481.649 285.087L481.544 283.089L474.856 283.441L474.961 285.439ZM457.913 381.883C466.145 382.706 473.044 383.12 478.604 383.12V381.12C473.135 381.12 466.306 380.712 458.112 379.893L457.913 381.883ZM478.604 383.12C483.688 383.12 488.484 382.824 492.991 382.231L492.73 380.249C488.319 380.829 483.611 381.12 478.604 381.12V383.12ZM493.847 381.078C490.911 363.227 486.215 337.93 479.761 305.191L477.799 305.577C484.252 338.31 488.943 363.583 491.873 381.402L493.847 381.078ZM477.793 305.223C473.698 330.26 466.795 355.361 457.079 380.528L458.945 381.248C468.707 355.961 475.649 330.727 479.767 305.545L477.793 305.223ZM617.984 286.024H616.984C616.984 286.035 616.984 286.047 616.984 286.058L617.984 286.024ZM617.984 404.648L616.985 404.601C616.984 404.616 616.984 404.632 616.984 404.648H617.984ZM617.104 405.528L617.033 406.525C617.056 406.527 617.08 406.528 617.104 406.528V405.528ZM612.176 405.176L612.247 404.179C612.223 404.177 612.2 404.176 612.176 404.176V405.176ZM611.296 404.296L610.297 404.249C610.296 404.264 610.296 404.28 610.296 404.296H611.296ZM611.648 295.528L612.647 295.498C612.635 295.088 612.374 294.728 611.989 294.588C611.603 294.448 611.172 294.558 610.9 294.864L611.648 295.528ZM575.216 328.616L574.807 329.529C575.126 329.672 575.497 329.637 575.785 329.438L575.216 328.616ZM517.84 293.24L518.449 292.447C518.15 292.218 517.748 292.175 517.409 292.338C517.069 292.5 516.849 292.839 516.84 293.215L517.84 293.24ZM519.072 403.944H520.072C520.072 403.926 520.071 403.908 520.07 403.89L519.072 403.944ZM518.192 404.824V403.824C518.168 403.824 518.144 403.825 518.121 403.827L518.192 404.824ZM513.264 405.176V406.176C513.288 406.176 513.311 406.175 513.335 406.173L513.264 405.176ZM512.384 404.296H513.384C513.384 404.277 513.383 404.259 513.382 404.24L512.384 404.296ZM511.504 285.32L512.503 285.35C512.504 285.34 512.504 285.33 512.504 285.32H511.504ZM512.384 284.44L512.444 283.442C512.424 283.441 512.404 283.44 512.384 283.44V284.44ZM518.192 284.792L518.816 284.011C518.655 283.882 518.458 283.806 518.252 283.794L518.192 284.792ZM574.336 320.872L573.905 321.774C574.234 321.932 574.623 321.897 574.919 321.684L574.336 320.872ZM611.296 285.496L611.235 284.498C610.962 284.514 610.707 284.642 610.531 284.852L611.296 285.496ZM617.104 285.144V284.144C617.084 284.144 617.063 284.145 617.043 284.146L617.104 285.144ZM616.984 286.058C617.805 310.221 618.216 331.095 618.216 348.68H620.216C620.216 331.065 619.805 310.168 618.983 285.99L616.984 286.058ZM618.216 348.68C618.216 368.613 617.805 387.253 616.985 404.601L618.983 404.695C619.805 387.312 620.216 368.64 620.216 348.68H618.216ZM616.984 404.648C616.984 404.714 616.975 404.732 616.98 404.717C616.987 404.697 617.008 404.65 617.057 404.601C617.105 404.552 617.153 404.531 617.173 404.524C617.187 404.519 617.17 404.528 617.104 404.528V406.528C617.551 406.528 618.071 406.415 618.471 406.015C618.871 405.615 618.984 405.095 618.984 404.648H616.984ZM617.175 404.531L612.247 404.179L612.105 406.173L617.033 406.525L617.175 404.531ZM612.176 404.176C612.109 404.176 612.092 404.167 612.107 404.172C612.127 404.179 612.174 404.2 612.223 404.249C612.272 404.298 612.293 404.345 612.299 404.365C612.304 404.38 612.296 404.362 612.296 404.296H610.296C610.296 404.743 610.408 405.263 610.809 405.663C611.209 406.063 611.728 406.176 612.176 406.176V404.176ZM612.295 404.343C613.117 386.96 613.528 368.229 613.528 348.152H611.528C611.528 368.203 611.117 386.901 610.297 404.249L612.295 404.343ZM613.528 348.152C613.528 332.417 613.234 314.866 612.647 295.498L610.648 295.558C611.235 314.91 611.528 332.441 611.528 348.152H613.528ZM610.9 294.864C598.856 308.428 586.771 319.4 574.647 327.794L575.785 329.438C588.066 320.936 600.269 309.849 612.396 296.192L610.9 294.864ZM575.625 327.703C557.643 319.647 538.585 307.9 518.449 292.447L517.231 294.033C537.458 309.556 556.65 321.393 574.807 329.529L575.625 327.703ZM516.84 293.215C516.488 307.303 516.312 321.157 516.312 334.776H518.312C518.312 321.174 518.488 307.337 518.839 293.265L516.84 293.215ZM516.312 334.776C516.312 359.314 516.899 382.389 518.073 403.998L520.07 403.89C518.898 382.321 518.312 359.283 518.312 334.776H516.312ZM518.072 403.944C518.072 404.01 518.063 404.028 518.068 404.013C518.075 403.993 518.096 403.946 518.145 403.897C518.193 403.848 518.241 403.827 518.261 403.82C518.275 403.815 518.258 403.824 518.192 403.824V405.824C518.639 405.824 519.159 405.711 519.559 405.311C519.959 404.911 520.072 404.391 520.072 403.944H518.072ZM518.121 403.827L513.193 404.179L513.335 406.173L518.263 405.821L518.121 403.827ZM513.264 404.176C513.197 404.176 513.18 404.167 513.195 404.172C513.215 404.179 513.262 404.2 513.311 404.249C513.36 404.298 513.381 404.345 513.387 404.365C513.392 404.38 513.384 404.362 513.384 404.296H511.384C511.384 404.743 511.496 405.263 511.897 405.663C512.297 406.063 512.816 406.176 513.264 406.176V404.176ZM513.382 404.24C512.21 383.259 511.624 360.749 511.624 336.712H509.624C509.624 360.781 510.211 383.328 511.385 404.352L513.382 404.24ZM511.624 336.712C511.624 321.823 511.917 304.703 512.503 285.35L510.504 285.29C509.917 304.657 509.624 321.798 509.624 336.712H511.624ZM512.504 285.32C512.504 285.254 512.512 285.236 512.507 285.251C512.501 285.271 512.48 285.318 512.431 285.367C512.382 285.416 512.335 285.437 512.315 285.444C512.3 285.449 512.317 285.44 512.384 285.44V283.44C511.936 283.44 511.417 283.553 511.017 283.953C510.616 284.353 510.504 284.873 510.504 285.32H512.504ZM512.323 285.438L518.131 285.79L518.252 283.794L512.444 283.442L512.323 285.438ZM517.568 285.573C536.857 300.982 555.636 313.053 573.905 321.774L574.767 319.97C556.662 311.326 538.012 299.344 518.816 284.011L517.568 285.573ZM574.919 321.684C587.089 312.941 599.468 301.087 612.061 286.14L610.531 284.852C598.014 299.708 585.754 311.438 573.752 320.06L574.919 321.684ZM611.356 286.494L617.164 286.142L617.043 284.146L611.235 284.498L611.356 286.494ZM617.104 286.144C617.17 286.144 617.187 286.153 617.173 286.148C617.153 286.141 617.105 286.12 617.057 286.071C617.008 286.022 616.987 285.975 616.98 285.955C616.975 285.94 616.984 285.958 616.984 286.024H618.984C618.984 285.577 618.871 285.057 618.471 284.657C618.071 284.257 617.551 284.144 617.104 284.144V286.144ZM691.333 315.592L690.394 315.937L690.399 315.948L691.333 315.592ZM679.893 357.128L680.475 357.941L680.482 357.936L679.893 357.128ZM640.469 368.92L640.406 367.922C639.868 367.956 639.454 368.41 639.47 368.949L640.469 368.92ZM640.469 404.12L639.47 404.088C639.469 404.099 639.469 404.109 639.469 404.12H640.469ZM639.413 405L639.303 405.994C639.339 405.998 639.376 406 639.413 406V405ZM634.661 404.472L634.772 403.478C634.735 403.474 634.698 403.472 634.661 403.472V404.472ZM633.957 404.296L633.063 404.743C633.159 404.937 633.316 405.094 633.51 405.19L633.957 404.296ZM633.781 403.592L632.782 403.561C632.781 403.571 632.781 403.582 632.781 403.592H633.781ZM632.725 333.72L631.726 333.759L631.726 333.765L632.725 333.72ZM629.733 284.792V283.792C629.452 283.792 629.185 283.91 628.995 284.117C628.806 284.324 628.712 284.601 628.737 284.881L629.733 284.792ZM629.909 284.792V285.792C629.939 285.792 629.97 285.791 630 285.788L629.909 284.792ZM659.829 288.664L659.5 289.608L659.504 289.61L659.829 288.664ZM679.893 299.928L679.236 300.682L679.245 300.69L679.893 299.928ZM640.469 362.232L639.469 362.254C639.475 362.527 639.592 362.785 639.793 362.969C639.994 363.153 640.261 363.247 640.532 363.23L640.469 362.232ZM674.965 352.376L675.531 353.201L675.539 353.195L674.965 352.376ZM684.997 317.704L684.053 318.034L684.057 318.044L684.997 317.704ZM675.141 304.68L675.77 303.903L675.77 303.903L675.141 304.68ZM657.541 295.176L657.201 296.116C657.205 296.118 657.21 296.12 657.215 296.121L657.541 295.176ZM636.949 291.304L636.966 290.304C636.683 290.299 636.412 290.414 636.219 290.621C636.026 290.827 635.929 291.106 635.953 291.388L636.949 291.304ZM690.399 315.948C692.236 320.77 693.149 325.578 693.149 330.376H695.149C695.149 325.318 694.185 320.27 692.268 315.236L690.399 315.948ZM693.149 330.376C693.149 340.94 688.573 349.568 679.304 356.32L680.482 357.936C690.221 350.842 695.149 341.636 695.149 330.376H693.149ZM679.311 356.315C670.012 362.973 657.076 366.873 640.406 367.922L640.532 369.918C657.42 368.855 670.766 364.893 680.475 357.941L679.311 356.315ZM639.47 368.949C639.586 373.041 639.645 379.072 639.645 387.048H641.645C641.645 379.067 641.586 373.013 641.469 368.891L639.47 368.949ZM639.645 387.048C639.645 394.79 639.586 400.468 639.47 404.088L641.469 404.152C641.586 400.498 641.645 394.794 641.645 387.048H639.645ZM639.469 404.12C639.469 404.169 639.462 404.166 639.475 404.134C639.481 404.117 639.492 404.095 639.509 404.072C639.526 404.049 639.545 404.028 639.565 404.012C639.605 403.978 639.629 403.975 639.607 403.981C639.583 403.988 639.523 404 639.413 404V406C639.879 406 640.415 405.907 640.845 405.548C641.31 405.161 641.469 404.62 641.469 404.12H639.469ZM639.524 404.006L634.772 403.478L634.551 405.466L639.303 405.994L639.524 404.006ZM634.661 403.472C634.599 403.472 634.517 403.458 634.404 403.402L633.51 405.19C633.867 405.369 634.254 405.472 634.661 405.472V403.472ZM634.852 403.849C634.795 403.736 634.781 403.654 634.781 403.592H632.781C632.781 403.999 632.884 404.386 633.063 404.743L634.852 403.849ZM634.781 403.623C634.898 399.852 634.957 393.913 634.957 385.816H632.957C632.957 393.911 632.898 399.823 632.782 403.561L634.781 403.623ZM634.957 385.816C634.957 369.138 634.546 351.758 633.724 333.675L631.726 333.765C632.547 351.821 632.957 369.171 632.957 385.816H634.957ZM633.724 333.681C633.02 315.482 632.022 299.155 630.729 284.703L628.737 284.881C630.026 299.293 631.022 315.585 631.726 333.759L633.724 333.681ZM629.733 285.792H629.909V283.792H629.733V285.792ZM630 285.788C631.244 285.675 633.086 285.616 635.541 285.616V283.616C633.069 283.616 631.155 283.675 629.819 283.796L630 285.788ZM635.541 285.616C643.881 285.616 651.865 286.948 659.5 289.608L660.158 287.72C652.305 284.983 644.098 283.616 635.541 283.616V285.616ZM659.504 289.61C667.26 292.272 673.831 295.967 679.236 300.682L680.55 299.174C674.926 294.268 668.121 290.453 660.154 287.718L659.504 289.61ZM679.245 300.69C684.653 305.292 688.352 310.376 690.394 315.937L692.272 315.247C690.09 309.309 686.163 303.951 680.541 299.166L679.245 300.69ZM640.532 363.23C655.415 362.285 667.113 358.973 675.531 353.201L674.4 351.551C666.39 357.043 655.092 360.302 640.406 361.234L640.532 363.23ZM675.539 353.195C683.989 347.28 688.285 339.537 688.285 330.024H686.285C686.285 338.815 682.368 345.974 674.392 351.557L675.539 353.195ZM688.285 330.024C688.285 325.905 687.497 321.684 685.938 317.364L684.057 318.044C685.547 322.172 686.285 326.164 686.285 330.024H688.285ZM685.941 317.374C684.222 312.463 680.803 307.977 675.77 303.903L674.512 305.457C679.335 309.361 682.487 313.559 684.053 318.034L685.941 317.374ZM675.77 303.903C670.74 299.831 664.768 296.61 657.867 294.231L657.215 296.121C663.925 298.435 669.686 301.55 674.512 305.457L675.77 303.903ZM657.882 294.236C650.977 291.736 644.004 290.423 636.966 290.304L636.932 292.304C643.74 292.419 650.494 293.688 657.201 296.116L657.882 294.236ZM635.953 291.388C637.711 312.366 638.883 335.987 639.469 362.254L641.469 362.21C640.882 335.911 639.708 312.248 637.946 291.22L635.953 291.388ZM742.159 284.088L743.139 283.893C743.042 283.406 742.602 283.063 742.106 283.089L742.159 284.088ZM763.279 403.944H764.279C764.279 403.92 764.278 403.895 764.276 403.871L763.279 403.944ZM762.399 404.824V403.824C762.375 403.824 762.351 403.825 762.327 403.827L762.399 404.824ZM757.471 405.176V406.176C757.494 406.176 757.518 406.175 757.542 406.173L757.471 405.176ZM756.591 404.296H757.591C757.591 404.268 757.589 404.241 757.587 404.213L756.591 404.296ZM754.479 387.928L755.466 387.772C755.382 387.239 754.89 386.869 754.355 386.936L754.479 387.928ZM715.935 387.4L716.04 386.406C715.606 386.36 715.192 386.601 715.018 387.001L715.935 387.4ZM708.191 404.12L709.085 404.567L709.089 404.56L708.191 404.12ZM707.663 404.648L707.215 403.754L707.215 403.754L707.663 404.648ZM706.959 404.648L706.47 405.521C706.484 405.528 706.497 405.535 706.511 405.542L706.959 404.648ZM702.559 402.184L701.959 402.984C701.994 403.011 702.031 403.035 702.07 403.057L702.559 402.184ZM702.207 401.128L703.039 401.683C703.065 401.643 703.088 401.602 703.109 401.559L702.207 401.128ZM708.895 386.52L709.812 386.917C709.935 386.635 709.92 386.312 709.773 386.042C709.626 385.772 709.362 385.584 709.059 385.534L708.895 386.52ZM706.783 386.168L705.795 386.012C705.709 386.554 706.077 387.064 706.618 387.154L706.783 386.168ZM707.839 379.48L707.98 378.49C707.439 378.413 706.936 378.784 706.851 379.324L707.839 379.48ZM711.535 380.008L711.393 380.998C711.848 381.063 712.288 380.81 712.461 380.384L711.535 380.008ZM726.847 332.488L727.818 332.727L727.818 332.726L726.847 332.488ZM735.471 284.44L735.418 283.441C734.928 283.467 734.529 283.845 734.476 284.333L735.471 284.44ZM718.575 380.888L717.642 380.528C717.529 380.819 717.559 381.146 717.723 381.412C717.886 381.678 718.165 381.852 718.475 381.883L718.575 380.888ZM753.423 381.24L753.553 382.231C753.822 382.196 754.064 382.053 754.226 381.836C754.387 381.619 754.453 381.345 754.409 381.078L753.423 381.24ZM739.343 305.384L740.324 305.191C740.23 304.716 739.81 304.376 739.326 304.384C738.843 304.392 738.434 304.745 738.356 305.223L739.343 305.384ZM741.178 284.283C754.207 349.784 761.231 389.662 762.281 404.017L764.276 403.871C763.214 389.362 756.158 349.336 743.139 283.893L741.178 284.283ZM762.279 403.944C762.279 404.01 762.27 404.028 762.275 404.013C762.282 403.993 762.303 403.946 762.352 403.897C762.4 403.848 762.448 403.827 762.467 403.82C762.482 403.815 762.465 403.824 762.399 403.824V405.824C762.846 405.824 763.365 405.711 763.766 405.311C764.166 404.911 764.279 404.391 764.279 403.944H762.279ZM762.327 403.827L757.399 404.179L757.542 406.173L762.47 405.821L762.327 403.827ZM757.471 404.176C757.404 404.176 757.387 404.167 757.402 404.172C757.422 404.179 757.469 404.2 757.518 404.249C757.567 404.298 757.588 404.345 757.594 404.365C757.599 404.38 757.591 404.362 757.591 404.296H755.591C755.591 404.743 755.703 405.263 756.104 405.663C756.504 406.063 757.023 406.176 757.471 406.176V404.176ZM757.587 404.213C757.232 399.955 756.524 394.472 755.466 387.772L753.491 388.084C754.545 394.76 755.245 400.189 755.594 404.379L757.587 404.213ZM754.355 386.936C750.658 387.398 745.834 387.632 739.871 387.632V389.632C745.875 389.632 750.79 389.397 754.603 388.92L754.355 386.936ZM739.871 387.632C731.691 387.632 723.747 387.223 716.04 386.406L715.829 388.394C723.61 389.22 731.624 389.632 739.871 389.632V387.632ZM715.018 387.001C712.677 392.384 710.102 397.943 707.293 403.68L709.089 404.56C711.911 398.798 714.499 393.211 716.852 387.799L715.018 387.001ZM707.296 403.673C707.276 403.714 707.257 403.733 707.215 403.754L708.11 405.542C708.538 405.328 708.871 404.995 709.085 404.567L707.296 403.673ZM707.215 403.754C707.22 403.751 707.255 403.736 707.311 403.736C707.366 403.736 707.401 403.751 707.406 403.754L706.511 405.542C707.028 405.801 707.594 405.801 708.11 405.542L707.215 403.754ZM707.447 403.775L703.047 401.311L702.07 403.057L706.47 405.521L707.447 403.775ZM703.159 401.384C703.087 401.33 703.053 401.294 703.041 401.28C703.029 401.266 703.049 401.285 703.067 401.34C703.087 401.4 703.096 401.477 703.083 401.556C703.071 401.631 703.044 401.675 703.039 401.683L701.375 400.573C701.113 400.965 700.999 401.46 701.17 401.972C701.32 402.424 701.648 402.751 701.959 402.984L703.159 401.384ZM703.109 401.559C705.694 396.154 707.929 391.272 709.812 386.917L707.977 386.123C706.106 390.45 703.882 395.308 701.304 400.697L703.109 401.559ZM709.059 385.534L706.947 385.182L706.618 387.154L708.73 387.506L709.059 385.534ZM707.77 386.324L708.826 379.636L706.851 379.324L705.795 386.012L707.77 386.324ZM707.697 380.47L711.393 380.998L711.676 379.018L707.98 378.49L707.697 380.47ZM712.461 380.384C718.582 365.319 723.7 349.433 727.818 332.727L725.876 332.249C721.78 348.866 716.69 364.66 710.608 379.632L712.461 380.384ZM727.818 332.726C731.934 315.909 734.817 299.849 736.465 284.547L734.476 284.333C732.839 299.537 729.973 315.509 725.875 332.25L727.818 332.726ZM735.523 285.439L742.211 285.087L742.106 283.089L735.418 283.441L735.523 285.439ZM718.475 381.883C726.707 382.706 733.607 383.12 739.167 383.12V381.12C733.697 381.12 726.869 380.712 718.674 379.893L718.475 381.883ZM739.167 383.12C744.25 383.12 749.046 382.824 753.553 382.231L753.292 380.249C748.882 380.829 744.174 381.12 739.167 381.12V383.12ZM754.409 381.078C751.473 363.227 746.778 337.93 740.324 305.191L738.362 305.577C744.814 338.31 749.505 363.583 752.436 381.402L754.409 381.078ZM738.356 305.223C734.261 330.26 727.357 355.361 717.642 380.528L719.508 381.248C729.269 355.961 736.211 330.727 740.33 305.545L738.356 305.223Z" fill="#7C6345"/>
</g>
<path d="M108 0L123.292 69.4364L184.368 30.9002L144.918 90.562L216 105.5L144.918 120.438L184.368 180.1L123.292 141.564L108 211L92.708 141.564L31.6325 180.1L71.0818 120.438L0 105.5L71.0818 90.562L31.6325 30.9002L92.708 69.4364L108 0Z" fill="#30972E"/>
<line x1="293.734" y1="198.704" x2="389.323" y2="132.986" stroke="#622F00" stroke-width="8"/>
<defs>
<filter id="filter0_d" x="75.0163" y="72.2488" width="359.454" height="371.043" filterUnits="userSpaceOnUse" color-interpolation-filters="sRGB">
<feFlood flood-opacity="0" result="BackgroundImageFix"/>
<feColorMatrix in="SourceAlpha" type="matrix" values="0 0 0 0 0 0 0 0 0 0 0 0 0 0 0 0 0 0 127 0"/>
<feOffset dy="4"/>
<feGaussianBlur stdDeviation="2"/>
<feColorMatrix type="matrix" values="0 0 0 0 0 0 0 0 0 0 0 0 0 0 0 0 0 0 0.25 0"/>
<feBlend mode="normal" in2="BackgroundImageFix" result="effect1_dropShadow"/>
<feBlend mode="normal" in="SourceGraphic" in2="effect1_dropShadow" result="shape"/>
</filter>
<filter id="filter1_d" x="362.808" y="283.088" width="405.471" height="131.44" filterUnits="userSpaceOnUse" color-interpolation-filters="sRGB">
<feFlood flood-opacity="0" result="BackgroundImageFix"/>
<feColorMatrix in="SourceAlpha" type="matrix" values="0 0 0 0 0 0 0 0 0 0 0 0 0 0 0 0 0 0 127 0"/>
<feOffset dy="4"/>
<feGaussianBlur stdDeviation="2"/>
<feColorMatrix type="matrix" values="0 0 0 0 0 0 0 0 0 0 0 0 0 0 0 0 0 0 0.25 0"/>
<feBlend mode="normal" in2="BackgroundImageFix" result="effect1_dropShadow"/>
<feBlend mode="normal" in="SourceGraphic" in2="effect1_dropShadow" result="shape"/>
</filter>
<linearGradient id="paint0_linear" x1="564.5" y1="211" x2="564.5" y2="430" gradientUnits="userSpaceOnUse">
<stop stop-color="#FF3D00"/>
<stop offset="1" stop-color="#FF4003" stop-opacity="0"/>
</linearGradient>
<linearGradient id="paint1_linear" x1="564.5" y1="211" x2="564.5" y2="430" gradientUnits="userSpaceOnUse">
<stop stop-color="#FDD1FB"/>
<stop offset="1" stop-color="#CA7878" stop-opacity="0"/>
</linearGradient>
</defs>
</svg>
