<svg width="696" height="444" viewBox="0 0 696 444" fill="none" xmlns="http://www.w3.org/2000/svg">
<rect width="696" height="444" fill="#FFF3E9"/>
<g filter="url(#filter0_d)">
<path d="M110.776 107.12C109.185 105.587 106.653 105.633 105.12 107.224L80.1364 133.143C78.6033 134.734 78.6498 137.266 80.2404 138.799C81.8309 140.332 84.3631 140.286 85.8962 138.695L108.104 115.656L131.143 137.863C132.734 139.397 135.266 139.35 136.799 137.759C138.332 136.169 138.286 133.637 136.695 132.104L110.776 107.12ZM320 430L319.096 433.897L325.114 435.292L323.925 429.23L320 430ZM408.17 190.557C410.134 191.567 412.546 190.794 413.557 188.83L430.027 156.818C431.037 154.854 430.264 152.442 428.3 151.431C426.335 150.421 423.924 151.194 422.913 153.158L408.273 181.613L379.818 166.973C377.854 165.962 375.442 166.736 374.431 168.7C373.421 170.664 374.194 173.076 376.158 174.087L408.17 190.557ZM104.001 110.073C108.038 329.717 248.523 417.532 319.096 433.897L320.904 426.103C253.477 410.468 115.962 325.483 111.999 109.926L104.001 110.073ZM323.925 429.23C306.21 338.907 298.812 265.67 298.687 209.913C298.563 153.964 305.77 116.182 316.751 96.3095C322.224 86.4047 328.239 81.6368 334.106 80.5214C339.925 79.4153 346.939 81.6529 355.023 88.8737C371.301 103.414 389.477 136.083 406.191 188.221L413.809 185.779C397.023 133.417 378.324 98.9608 360.352 82.9073C351.311 74.8313 341.856 70.9049 332.612 72.6621C323.417 74.41 315.776 81.5327 309.749 92.4404C297.73 114.193 290.562 153.723 290.688 209.931C290.813 266.33 298.29 340.093 316.075 430.77L323.925 429.23Z" fill="#622F00"/>
</g>
<g filter="url(#filter1_d)">
<path d="M420.032 365.392C420.32 365.68 420.32 366.064 420.032 366.544L417.296 369.424C416.912 369.808 416.576 369.856 416.288 369.568L381.008 340.048L375.536 340.48C375.632 343.84 375.68 348.784 375.68 355.312C375.68 361.648 375.632 366.304 375.536 369.28C375.536 369.76 375.248 370 374.672 370L370.784 369.568C370.592 369.568 370.4 369.52 370.208 369.424C370.112 369.232 370.064 369.04 370.064 368.848C370.16 365.776 370.208 360.928 370.208 354.304C370.208 340.672 369.872 326.464 369.2 311.68C368.624 296.8 367.808 283.456 366.752 271.648H366.896C367.952 271.552 369.488 271.504 371.504 271.504C378.416 271.504 385.04 272.608 391.376 274.816C397.808 277.024 403.28 280.096 407.792 284.032C412.304 287.872 415.424 292.144 417.152 296.848C418.688 300.88 419.456 304.912 419.456 308.944C419.456 316.336 416.72 322.672 411.248 327.952C405.776 333.136 398.096 336.784 388.208 338.896L420.032 365.392ZM372.656 276.976C374.096 294.16 375.056 313.504 375.536 335.008C387.632 334.24 397.04 331.552 403.76 326.944C410.48 322.24 413.84 316.144 413.84 308.656C413.84 305.392 413.216 302.032 411.968 298.576C410.624 294.736 407.936 291.184 403.904 287.92C399.872 284.656 395.072 282.064 389.504 280.144C383.936 278.128 378.32 277.072 372.656 276.976ZM459.851 271.072C470.507 324.64 476.267 357.328 477.131 369.136C477.131 369.616 476.891 369.856 476.411 369.856L472.379 370.144C471.899 370.144 471.659 369.904 471.659 369.424C471.371 365.968 470.795 361.504 469.931 356.032C466.859 356.416 462.875 356.608 457.979 356.608C451.259 356.608 444.731 356.272 438.395 355.6C436.475 360.016 434.363 364.576 432.059 369.28C431.963 369.472 431.819 369.616 431.627 369.712C431.435 369.808 431.243 369.808 431.051 369.712L427.451 367.696C427.067 367.408 426.971 367.12 427.163 366.832C429.275 362.416 431.099 358.432 432.635 354.88L430.907 354.592L431.771 349.12L434.795 349.552C439.787 337.264 443.963 324.304 447.323 310.672C450.683 296.944 453.035 283.84 454.379 271.36L459.851 271.072ZM440.555 350.272C447.275 350.944 452.891 351.28 457.403 351.28C461.531 351.28 465.419 351.04 469.067 350.56C466.667 335.968 462.827 315.28 457.547 288.496C454.187 309.04 448.523 329.632 440.555 350.272ZM571.441 272.656C572.113 292.432 572.449 309.52 572.449 323.92C572.449 340.24 572.113 355.504 571.441 369.712C571.441 370.192 571.201 370.432 570.721 370.432L566.689 370.144C566.209 370.144 565.969 369.904 565.969 369.424C566.641 355.216 566.977 339.904 566.977 323.488C566.977 310.624 566.737 296.272 566.257 280.432C556.369 291.568 546.433 300.592 536.449 307.504C521.665 300.88 506.017 291.232 489.505 278.56C489.217 290.08 489.073 301.408 489.073 312.544C489.073 332.608 489.553 351.472 490.513 369.136C490.513 369.616 490.273 369.856 489.793 369.856L485.761 370.144C485.281 370.144 485.041 369.904 485.041 369.424C484.081 352.24 483.601 333.808 483.601 314.128C483.601 301.936 483.841 287.92 484.321 272.08C484.321 271.6 484.561 271.36 485.041 271.36L489.793 271.648C505.537 284.224 520.849 294.064 535.729 301.168C545.617 294.064 555.697 284.416 565.969 272.224L570.721 271.936C571.201 271.936 571.441 272.176 571.441 272.656ZM631.454 296.848C632.99 300.88 633.758 304.912 633.758 308.944C633.758 317.872 629.87 325.168 622.094 330.832C614.318 336.4 603.566 339.616 589.838 340.48C589.934 343.84 589.982 348.784 589.982 355.312C589.982 361.648 589.934 366.304 589.838 369.28C589.838 369.76 589.55 370 588.974 370L585.086 369.568C584.894 369.568 584.702 369.52 584.51 369.424C584.414 369.232 584.366 369.04 584.366 368.848C584.462 365.776 584.51 360.928 584.51 354.304C584.51 340.672 584.174 326.464 583.502 311.68C582.926 296.8 582.11 283.456 581.054 271.648H581.198C582.254 271.552 583.79 271.504 585.806 271.504C592.718 271.504 599.342 272.608 605.678 274.816C612.11 277.024 617.582 280.096 622.094 284.032C626.606 287.872 629.726 292.144 631.454 296.848ZM589.838 335.008C601.934 334.24 611.342 331.552 618.062 326.944C624.782 322.24 628.142 316.144 628.142 308.656C628.142 305.392 627.518 302.032 626.27 298.576C624.926 294.736 622.238 291.184 618.206 287.92C614.174 284.656 609.374 282.064 603.806 280.144C598.238 278.128 592.622 277.072 586.958 276.976C588.398 294.16 589.358 313.504 589.838 335.008ZM673.039 271.072C683.695 324.64 689.455 357.328 690.319 369.136C690.319 369.616 690.079 369.856 689.599 369.856L685.567 370.144C685.087 370.144 684.847 369.904 684.847 369.424C684.559 365.968 683.983 361.504 683.119 356.032C680.047 356.416 676.063 356.608 671.167 356.608C664.447 356.608 657.919 356.272 651.583 355.6C649.663 360.016 647.551 364.576 645.247 369.28C645.151 369.472 645.007 369.616 644.815 369.712C644.623 369.808 644.431 369.808 644.239 369.712L640.639 367.696C640.255 367.408 640.159 367.12 640.351 366.832C642.463 362.416 644.287 358.432 645.823 354.88L644.095 354.592L644.959 349.12L647.983 349.552C652.975 337.264 657.151 324.304 660.511 310.672C663.871 296.944 666.223 283.84 667.567 271.36L673.039 271.072ZM653.743 350.272C660.463 350.944 666.079 351.28 670.591 351.28C674.719 351.28 678.607 351.04 682.255 350.56C679.855 335.968 676.015 315.28 670.735 288.496C667.375 309.04 661.711 329.632 653.743 350.272Z" fill="#FF7A00"/>
<path d="M420.032 365.392C420.32 365.68 420.32 366.064 420.032 366.544L417.296 369.424C416.912 369.808 416.576 369.856 416.288 369.568L381.008 340.048L375.536 340.48C375.632 343.84 375.68 348.784 375.68 355.312C375.68 361.648 375.632 366.304 375.536 369.28C375.536 369.76 375.248 370 374.672 370L370.784 369.568C370.592 369.568 370.4 369.52 370.208 369.424C370.112 369.232 370.064 369.04 370.064 368.848C370.16 365.776 370.208 360.928 370.208 354.304C370.208 340.672 369.872 326.464 369.2 311.68C368.624 296.8 367.808 283.456 366.752 271.648H366.896C367.952 271.552 369.488 271.504 371.504 271.504C378.416 271.504 385.04 272.608 391.376 274.816C397.808 277.024 403.28 280.096 407.792 284.032C412.304 287.872 415.424 292.144 417.152 296.848C418.688 300.88 419.456 304.912 419.456 308.944C419.456 316.336 416.72 322.672 411.248 327.952C405.776 333.136 398.096 336.784 388.208 338.896L420.032 365.392ZM372.656 276.976C374.096 294.16 375.056 313.504 375.536 335.008C387.632 334.24 397.04 331.552 403.76 326.944C410.48 322.24 413.84 316.144 413.84 308.656C413.84 305.392 413.216 302.032 411.968 298.576C410.624 294.736 407.936 291.184 403.904 287.92C399.872 284.656 395.072 282.064 389.504 280.144C383.936 278.128 378.32 277.072 372.656 276.976ZM459.851 271.072C470.507 324.64 476.267 357.328 477.131 369.136C477.131 369.616 476.891 369.856 476.411 369.856L472.379 370.144C471.899 370.144 471.659 369.904 471.659 369.424C471.371 365.968 470.795 361.504 469.931 356.032C466.859 356.416 462.875 356.608 457.979 356.608C451.259 356.608 444.731 356.272 438.395 355.6C436.475 360.016 434.363 364.576 432.059 369.28C431.963 369.472 431.819 369.616 431.627 369.712C431.435 369.808 431.243 369.808 431.051 369.712L427.451 367.696C427.067 367.408 426.971 367.12 427.163 366.832C429.275 362.416 431.099 358.432 432.635 354.88L430.907 354.592L431.771 349.12L434.795 349.552C439.787 337.264 443.963 324.304 447.323 310.672C450.683 296.944 453.035 283.84 454.379 271.36L459.851 271.072ZM440.555 350.272C447.275 350.944 452.891 351.28 457.403 351.28C461.531 351.28 465.419 351.04 469.067 350.56C466.667 335.968 462.827 315.28 457.547 288.496C454.187 309.04 448.523 329.632 440.555 350.272ZM571.441 272.656C572.113 292.432 572.449 309.52 572.449 323.92C572.449 340.24 572.113 355.504 571.441 369.712C571.441 370.192 571.201 370.432 570.721 370.432L566.689 370.144C566.209 370.144 565.969 369.904 565.969 369.424C566.641 355.216 566.977 339.904 566.977 323.488C566.977 310.624 566.737 296.272 566.257 280.432C556.369 291.568 546.433 300.592 536.449 307.504C521.665 300.88 506.017 291.232 489.505 278.56C489.217 290.08 489.073 301.408 489.073 312.544C489.073 332.608 489.553 351.472 490.513 369.136C490.513 369.616 490.273 369.856 489.793 369.856L485.761 370.144C485.281 370.144 485.041 369.904 485.041 369.424C484.081 352.24 483.601 333.808 483.601 314.128C483.601 301.936 483.841 287.92 484.321 272.08C484.321 271.6 484.561 271.36 485.041 271.36L489.793 271.648C505.537 284.224 520.849 294.064 535.729 301.168C545.617 294.064 555.697 284.416 565.969 272.224L570.721 271.936C571.201 271.936 571.441 272.176 571.441 272.656ZM631.454 296.848C632.99 300.88 633.758 304.912 633.758 308.944C633.758 317.872 629.87 325.168 622.094 330.832C614.318 336.4 603.566 339.616 589.838 340.48C589.934 343.84 589.982 348.784 589.982 355.312C589.982 361.648 589.934 366.304 589.838 369.28C589.838 369.76 589.55 370 588.974 370L585.086 369.568C584.894 369.568 584.702 369.52 584.51 369.424C584.414 369.232 584.366 369.04 584.366 368.848C584.462 365.776 584.51 360.928 584.51 354.304C584.51 340.672 584.174 326.464 583.502 311.68C582.926 296.8 582.11 283.456 581.054 271.648H581.198C582.254 271.552 583.79 271.504 585.806 271.504C592.718 271.504 599.342 272.608 605.678 274.816C612.11 277.024 617.582 280.096 622.094 284.032C626.606 287.872 629.726 292.144 631.454 296.848ZM589.838 335.008C601.934 334.24 611.342 331.552 618.062 326.944C624.782 322.24 628.142 316.144 628.142 308.656C628.142 305.392 627.518 302.032 626.27 298.576C624.926 294.736 622.238 291.184 618.206 287.92C614.174 284.656 609.374 282.064 603.806 280.144C598.238 278.128 592.622 277.072 586.958 276.976C588.398 294.16 589.358 313.504 589.838 335.008ZM673.039 271.072C683.695 324.64 689.455 357.328 690.319 369.136C690.319 369.616 690.079 369.856 689.599 369.856L685.567 370.144C685.087 370.144 684.847 369.904 684.847 369.424C684.559 365.968 683.983 361.504 683.119 356.032C680.047 356.416 676.063 356.608 671.167 356.608C664.447 356.608 657.919 356.272 651.583 355.6C649.663 360.016 647.551 364.576 645.247 369.28C645.151 369.472 645.007 369.616 644.815 369.712C644.623 369.808 644.431 369.808 644.239 369.712L640.639 367.696C640.255 367.408 640.159 367.12 640.351 366.832C642.463 362.416 644.287 358.432 645.823 354.88L644.095 354.592L644.959 349.12L647.983 349.552C652.975 337.264 657.151 324.304 660.511 310.672C663.871 296.944 666.223 283.84 667.567 271.36L673.039 271.072ZM653.743 350.272C660.463 350.944 666.079 351.28 670.591 351.28C674.719 351.28 678.607 351.04 682.255 350.56C679.855 335.968 676.015 315.28 670.735 288.496C667.375 309.04 661.711 329.632 653.743 350.272Z" fill="url(#paint0_linear)"/>
<path d="M420.032 365.392C420.32 365.68 420.32 366.064 420.032 366.544L417.296 369.424C416.912 369.808 416.576 369.856 416.288 369.568L381.008 340.048L375.536 340.48C375.632 343.84 375.68 348.784 375.68 355.312C375.68 361.648 375.632 366.304 375.536 369.28C375.536 369.76 375.248 370 374.672 370L370.784 369.568C370.592 369.568 370.4 369.52 370.208 369.424C370.112 369.232 370.064 369.04 370.064 368.848C370.16 365.776 370.208 360.928 370.208 354.304C370.208 340.672 369.872 326.464 369.2 311.68C368.624 296.8 367.808 283.456 366.752 271.648H366.896C367.952 271.552 369.488 271.504 371.504 271.504C378.416 271.504 385.04 272.608 391.376 274.816C397.808 277.024 403.28 280.096 407.792 284.032C412.304 287.872 415.424 292.144 417.152 296.848C418.688 300.88 419.456 304.912 419.456 308.944C419.456 316.336 416.72 322.672 411.248 327.952C405.776 333.136 398.096 336.784 388.208 338.896L420.032 365.392ZM372.656 276.976C374.096 294.16 375.056 313.504 375.536 335.008C387.632 334.24 397.04 331.552 403.76 326.944C410.48 322.24 413.84 316.144 413.84 308.656C413.84 305.392 413.216 302.032 411.968 298.576C410.624 294.736 407.936 291.184 403.904 287.92C399.872 284.656 395.072 282.064 389.504 280.144C383.936 278.128 378.32 277.072 372.656 276.976ZM459.851 271.072C470.507 324.64 476.267 357.328 477.131 369.136C477.131 369.616 476.891 369.856 476.411 369.856L472.379 370.144C471.899 370.144 471.659 369.904 471.659 369.424C471.371 365.968 470.795 361.504 469.931 356.032C466.859 356.416 462.875 356.608 457.979 356.608C451.259 356.608 444.731 356.272 438.395 355.6C436.475 360.016 434.363 364.576 432.059 369.28C431.963 369.472 431.819 369.616 431.627 369.712C431.435 369.808 431.243 369.808 431.051 369.712L427.451 367.696C427.067 367.408 426.971 367.12 427.163 366.832C429.275 362.416 431.099 358.432 432.635 354.88L430.907 354.592L431.771 349.12L434.795 349.552C439.787 337.264 443.963 324.304 447.323 310.672C450.683 296.944 453.035 283.84 454.379 271.36L459.851 271.072ZM440.555 350.272C447.275 350.944 452.891 351.28 457.403 351.28C461.531 351.28 465.419 351.04 469.067 350.56C466.667 335.968 462.827 315.28 457.547 288.496C454.187 309.04 448.523 329.632 440.555 350.272ZM571.441 272.656C572.113 292.432 572.449 309.52 572.449 323.92C572.449 340.24 572.113 355.504 571.441 369.712C571.441 370.192 571.201 370.432 570.721 370.432L566.689 370.144C566.209 370.144 565.969 369.904 565.969 369.424C566.641 355.216 566.977 339.904 566.977 323.488C566.977 310.624 566.737 296.272 566.257 280.432C556.369 291.568 546.433 300.592 536.449 307.504C521.665 300.88 506.017 291.232 489.505 278.56C489.217 290.08 489.073 301.408 489.073 312.544C489.073 332.608 489.553 351.472 490.513 369.136C490.513 369.616 490.273 369.856 489.793 369.856L485.761 370.144C485.281 370.144 485.041 369.904 485.041 369.424C484.081 352.24 483.601 333.808 483.601 314.128C483.601 301.936 483.841 287.92 484.321 272.08C484.321 271.6 484.561 271.36 485.041 271.36L489.793 271.648C505.537 284.224 520.849 294.064 535.729 301.168C545.617 294.064 555.697 284.416 565.969 272.224L570.721 271.936C571.201 271.936 571.441 272.176 571.441 272.656ZM631.454 296.848C632.99 300.88 633.758 304.912 633.758 308.944C633.758 317.872 629.87 325.168 622.094 330.832C614.318 336.4 603.566 339.616 589.838 340.48C589.934 343.84 589.982 348.784 589.982 355.312C589.982 361.648 589.934 366.304 589.838 369.28C589.838 369.76 589.55 370 588.974 370L585.086 369.568C584.894 369.568 584.702 369.52 584.51 369.424C584.414 369.232 584.366 369.04 584.366 368.848C584.462 365.776 584.51 360.928 584.51 354.304C584.51 340.672 584.174 326.464 583.502 311.68C582.926 296.8 582.11 283.456 581.054 271.648H581.198C582.254 271.552 583.79 271.504 585.806 271.504C592.718 271.504 599.342 272.608 605.678 274.816C612.11 277.024 617.582 280.096 622.094 284.032C626.606 287.872 629.726 292.144 631.454 296.848ZM589.838 335.008C601.934 334.24 611.342 331.552 618.062 326.944C624.782 322.24 628.142 316.144 628.142 308.656C628.142 305.392 627.518 302.032 626.27 298.576C624.926 294.736 622.238 291.184 618.206 287.92C614.174 284.656 609.374 282.064 603.806 280.144C598.238 278.128 592.622 277.072 586.958 276.976C588.398 294.16 589.358 313.504 589.838 335.008ZM673.039 271.072C683.695 324.64 689.455 357.328 690.319 369.136C690.319 369.616 690.079 369.856 689.599 369.856L685.567 370.144C685.087 370.144 684.847 369.904 684.847 369.424C684.559 365.968 683.983 361.504 683.119 356.032C680.047 356.416 676.063 356.608 671.167 356.608C664.447 356.608 657.919 356.272 651.583 355.6C649.663 360.016 647.551 364.576 645.247 369.28C645.151 369.472 645.007 369.616 644.815 369.712C644.623 369.808 644.431 369.808 644.239 369.712L640.639 367.696C640.255 367.408 640.159 367.12 640.351 366.832C642.463 362.416 644.287 358.432 645.823 354.88L644.095 354.592L644.959 349.12L647.983 349.552C652.975 337.264 657.151 324.304 660.511 310.672C663.871 296.944 666.223 283.84 667.567 271.36L673.039 271.072ZM653.743 350.272C660.463 350.944 666.079 351.28 670.591 351.28C674.719 351.28 678.607 351.04 682.255 350.56C679.855 335.968 676.015 315.28 670.735 288.496C667.375 309.04 661.711 329.632 653.743 350.272Z" fill="url(#paint1_linear)"/>
<path d="M420.032 365.392L420.739 364.685C420.718 364.663 420.695 364.643 420.672 364.623L420.032 365.392ZM420.032 366.544L420.757 367.233C420.807 367.18 420.852 367.121 420.889 367.058L420.032 366.544ZM417.296 369.424L418.003 370.131C418.009 370.125 418.015 370.119 418.021 370.113L417.296 369.424ZM416.288 369.568L416.995 368.861C416.974 368.84 416.952 368.82 416.93 368.801L416.288 369.568ZM381.008 340.048L381.65 339.281C381.449 339.113 381.19 339.031 380.929 339.051L381.008 340.048ZM375.536 340.48L375.457 339.483C374.926 339.525 374.521 339.976 374.536 340.509L375.536 340.48ZM375.536 369.28L374.537 369.248C374.536 369.258 374.536 369.269 374.536 369.28H375.536ZM374.672 370L374.562 370.994C374.598 370.998 374.635 371 374.672 371V370ZM370.784 369.568L370.894 368.574C370.858 368.57 370.821 368.568 370.784 368.568V369.568ZM370.208 369.424L369.314 369.871C369.41 370.065 369.567 370.222 369.761 370.318L370.208 369.424ZM370.064 368.848L369.064 368.817C369.064 368.827 369.064 368.838 369.064 368.848H370.064ZM369.2 311.68L368.201 311.719L368.201 311.725L369.2 311.68ZM366.752 271.648V270.648C366.471 270.648 366.204 270.766 366.014 270.973C365.825 271.18 365.731 271.457 365.756 271.737L366.752 271.648ZM366.896 271.648V272.648C366.926 272.648 366.956 272.647 366.987 272.644L366.896 271.648ZM391.376 274.816L391.047 275.76L391.051 275.762L391.376 274.816ZM407.792 284.032L407.135 284.786L407.144 284.794L407.792 284.032ZM417.152 296.848L416.213 297.193L416.218 297.204L417.152 296.848ZM411.248 327.952L411.936 328.678L411.942 328.672L411.248 327.952ZM388.208 338.896L387.999 337.918C387.625 337.998 387.329 338.285 387.237 338.656C387.145 339.028 387.274 339.42 387.568 339.665L388.208 338.896ZM372.656 276.976L372.673 275.976C372.39 275.971 372.119 276.086 371.926 276.293C371.733 276.499 371.636 276.778 371.659 277.06L372.656 276.976ZM375.536 335.008L374.536 335.03C374.542 335.303 374.659 335.561 374.86 335.745C375.06 335.929 375.328 336.023 375.599 336.006L375.536 335.008ZM403.76 326.944L404.326 327.769L404.333 327.763L403.76 326.944ZM411.968 298.576L411.024 298.906L411.027 298.916L411.968 298.576ZM403.904 287.92L404.533 287.143L403.904 287.92ZM389.504 280.144L389.164 281.084C389.168 281.086 389.173 281.088 389.178 281.089L389.504 280.144ZM419.325 366.099C419.317 366.091 419.294 366.065 419.275 366.02C419.255 365.973 419.248 365.928 419.248 365.896C419.248 365.867 419.253 365.861 419.245 365.886C419.237 365.911 419.217 365.958 419.175 366.03L420.889 367.058C421.087 366.73 421.248 366.334 421.248 365.896C421.248 365.421 421.058 365.004 420.739 364.685L419.325 366.099ZM419.307 365.855L416.571 368.735L418.021 370.113L420.757 367.233L419.307 365.855ZM416.589 368.717C416.535 368.771 416.505 368.79 416.503 368.792C416.501 368.793 416.539 368.769 416.615 368.758C416.697 368.746 416.788 368.755 416.872 368.788C416.95 368.818 416.989 368.855 416.995 368.861L415.581 370.275C415.897 370.592 416.354 370.816 416.897 370.738C417.374 370.67 417.743 370.391 418.003 370.131L416.589 368.717ZM416.93 368.801L381.65 339.281L380.366 340.815L415.646 370.335L416.93 368.801ZM380.929 339.051L375.457 339.483L375.615 341.477L381.087 341.045L380.929 339.051ZM374.536 340.509C374.632 343.854 374.68 348.786 374.68 355.312H376.68C376.68 348.782 376.632 343.826 376.536 340.451L374.536 340.509ZM374.68 355.312C374.68 361.646 374.632 366.289 374.537 369.248L376.535 369.312C376.632 366.319 376.68 361.65 376.68 355.312H374.68ZM374.536 369.28C374.536 369.302 374.533 369.276 374.554 369.224C374.577 369.165 374.62 369.102 374.68 369.052C374.736 369.005 374.78 368.992 374.782 368.991C374.783 368.991 374.775 368.993 374.756 368.996C374.737 368.998 374.71 369 374.672 369V371C375.074 371 375.562 370.92 375.96 370.588C376.393 370.227 376.536 369.727 376.536 369.28H374.536ZM374.782 369.006L370.894 368.574L370.674 370.562L374.562 370.994L374.782 369.006ZM370.784 368.568C370.765 368.568 370.725 368.564 370.655 368.53L369.761 370.318C370.075 370.476 370.419 370.568 370.784 370.568V368.568ZM371.102 368.977C371.068 368.907 371.064 368.867 371.064 368.848H369.064C369.064 369.213 369.156 369.557 369.314 369.871L371.102 368.977ZM371.064 368.879C371.16 365.791 371.208 360.929 371.208 354.304H369.208C369.208 360.927 369.16 365.761 369.064 368.817L371.064 368.879ZM371.208 354.304C371.208 340.656 370.872 326.432 370.199 311.635L368.201 311.725C368.872 326.496 369.208 340.688 369.208 354.304H371.208ZM370.199 311.641C369.623 296.749 368.806 283.387 367.748 271.559L365.756 271.737C366.81 283.525 367.625 296.851 368.201 311.719L370.199 311.641ZM366.752 272.648H366.896V270.648H366.752V272.648ZM366.987 272.644C367.997 272.552 369.496 272.504 371.504 272.504V270.504C369.48 270.504 367.907 270.552 366.805 270.652L366.987 272.644ZM371.504 272.504C378.307 272.504 384.82 273.59 391.047 275.76L391.705 273.872C385.26 271.626 378.525 270.504 371.504 270.504V272.504ZM391.051 275.762C397.378 277.934 402.732 280.945 407.135 284.786L408.449 283.278C403.828 279.247 398.238 276.114 391.701 273.87L391.051 275.762ZM407.144 284.794C411.549 288.542 414.555 292.678 416.213 297.193L418.091 296.503C416.293 291.61 413.059 287.202 408.44 283.27L407.144 284.794ZM416.218 297.204C417.713 301.13 418.456 305.042 418.456 308.944H420.456C420.456 304.782 419.663 300.63 418.086 296.492L416.218 297.204ZM418.456 308.944C418.456 316.056 415.837 322.135 410.554 327.232L411.942 328.672C417.603 323.209 420.456 316.616 420.456 308.944H418.456ZM410.56 327.226C405.26 332.247 397.767 335.832 387.999 337.918L388.417 339.874C398.425 337.736 406.292 334.025 411.936 328.678L410.56 327.226ZM387.568 339.665L419.392 366.161L420.672 364.623L388.848 338.127L387.568 339.665ZM371.659 277.06C373.097 294.219 374.057 313.542 374.536 335.03L376.536 334.986C376.055 313.466 375.095 294.101 373.653 276.892L371.659 277.06ZM375.599 336.006C387.794 335.232 397.401 332.517 404.326 327.769L403.194 326.119C396.679 330.587 387.47 333.248 375.473 334.01L375.599 336.006ZM404.333 327.763C411.291 322.893 414.84 316.505 414.84 308.656H412.84C412.84 315.783 409.669 321.587 403.187 326.125L404.333 327.763ZM414.84 308.656C414.84 305.263 414.191 301.788 412.909 298.236L411.027 298.916C412.241 302.276 412.84 305.521 412.84 308.656H414.84ZM412.912 298.246C411.492 294.188 408.67 290.492 404.533 287.143L403.275 288.697C407.202 291.876 409.756 295.284 411.024 298.906L412.912 298.246ZM404.533 287.143C400.399 283.796 395.493 281.152 389.83 279.199L389.178 281.089C394.651 282.976 399.345 285.516 403.275 288.697L404.533 287.143ZM389.844 279.204C384.177 277.152 378.452 276.074 372.673 275.976L372.639 277.976C378.188 278.07 383.695 279.104 389.164 281.084L389.844 279.204ZM459.851 271.072L460.832 270.877C460.735 270.39 460.295 270.047 459.799 270.073L459.851 271.072ZM477.131 369.136H478.131C478.131 369.112 478.13 369.087 478.129 369.063L477.131 369.136ZM476.411 369.856V368.856C476.388 368.856 476.364 368.857 476.34 368.859L476.411 369.856ZM472.379 370.144V371.144C472.403 371.144 472.427 371.143 472.451 371.141L472.379 370.144ZM471.659 369.424H472.659C472.659 369.396 472.658 369.369 472.656 369.341L471.659 369.424ZM469.931 356.032L470.919 355.876C470.835 355.343 470.343 354.973 469.807 355.04L469.931 356.032ZM438.395 355.6L438.501 354.606C438.066 354.56 437.652 354.801 437.478 355.201L438.395 355.6ZM432.059 369.28L432.954 369.727L432.957 369.72L432.059 369.28ZM431.627 369.712L431.18 368.818L431.627 369.712ZM431.051 369.712L430.563 370.585C430.576 370.592 430.59 370.599 430.604 370.606L431.051 369.712ZM427.451 367.696L426.851 368.496C426.887 368.523 426.924 368.547 426.963 368.569L427.451 367.696ZM427.163 366.832L427.995 367.387C428.022 367.347 428.045 367.306 428.066 367.263L427.163 366.832ZM432.635 354.88L433.553 355.277C433.675 354.995 433.661 354.672 433.514 354.402C433.366 354.132 433.103 353.944 432.8 353.894L432.635 354.88ZM430.907 354.592L429.92 354.436C429.834 354.978 430.201 355.488 430.743 355.578L430.907 354.592ZM431.771 349.12L431.913 348.13C431.372 348.053 430.869 348.424 430.784 348.964L431.771 349.12ZM434.795 349.552L434.654 350.542C435.109 350.607 435.549 350.354 435.722 349.928L434.795 349.552ZM447.323 310.672L448.294 310.911L448.295 310.91L447.323 310.672ZM454.379 271.36L454.327 270.361C453.837 270.387 453.438 270.765 453.385 271.253L454.379 271.36ZM440.555 350.272L439.622 349.912C439.51 350.203 439.54 350.53 439.704 350.796C439.867 351.062 440.145 351.236 440.456 351.267L440.555 350.272ZM469.067 350.56L469.198 351.551C469.466 351.516 469.709 351.373 469.87 351.156C470.032 350.939 470.098 350.665 470.054 350.398L469.067 350.56ZM457.547 288.496L458.528 288.303C458.435 287.828 458.015 287.488 457.531 287.496C457.047 287.504 456.639 287.857 456.56 288.335L457.547 288.496ZM458.871 271.267C469.532 324.864 475.276 357.478 476.134 369.209L478.129 369.063C477.259 357.178 471.483 324.416 460.832 270.877L458.871 271.267ZM476.131 369.136C476.131 369.222 476.111 369.103 476.244 368.969C476.378 368.835 476.497 368.856 476.411 368.856V370.856C476.806 370.856 477.285 370.757 477.658 370.383C478.032 370.009 478.131 369.53 478.131 369.136H476.131ZM476.34 368.859L472.308 369.147L472.451 371.141L476.483 370.853L476.34 368.859ZM472.379 369.144C472.294 369.144 472.413 369.123 472.546 369.257C472.68 369.391 472.659 369.51 472.659 369.424H470.659C470.659 369.818 470.759 370.297 471.132 370.671C471.506 371.045 471.985 371.144 472.379 371.144V369.144ZM472.656 369.341C472.365 365.851 471.785 361.36 470.919 355.876L468.944 356.188C469.806 361.648 470.378 366.085 470.663 369.507L472.656 369.341ZM469.807 355.04C466.793 355.417 462.855 355.608 457.979 355.608V357.608C462.896 357.608 466.926 357.415 470.055 357.024L469.807 355.04ZM457.979 355.608C451.293 355.608 444.8 355.274 438.501 354.606L438.29 356.594C444.663 357.27 451.226 357.608 457.979 357.608V355.608ZM437.478 355.201C435.565 359.602 433.459 364.149 431.161 368.84L432.957 369.72C435.268 365.003 437.386 360.43 439.312 355.999L437.478 355.201ZM431.165 368.833C431.163 368.836 431.163 368.836 431.165 368.834C431.166 368.832 431.169 368.828 431.172 368.825C431.176 368.821 431.179 368.819 431.181 368.817C431.183 368.816 431.183 368.816 431.18 368.818L432.075 370.606C432.46 370.414 432.761 370.113 432.954 369.727L431.165 368.833ZM431.18 368.818C431.206 368.804 431.263 368.784 431.339 368.784C431.416 368.784 431.472 368.804 431.499 368.818L430.604 370.606C431.078 370.843 431.601 370.843 432.075 370.606L431.18 368.818ZM431.54 368.839L427.94 366.823L426.963 368.569L430.563 370.585L431.54 368.839ZM428.051 366.896C428.001 366.858 427.984 366.838 427.986 366.84C427.987 366.842 428.017 366.877 428.04 366.948C428.066 367.024 428.076 367.117 428.06 367.212C428.045 367.303 428.012 367.363 427.995 367.387L426.331 366.277C426.091 366.637 425.983 367.1 426.143 367.58C426.283 368 426.584 368.295 426.851 368.496L428.051 366.896ZM428.066 367.263C430.182 362.839 432.011 358.843 433.553 355.277L431.718 354.483C430.188 358.021 428.369 361.993 426.261 366.401L428.066 367.263ZM432.8 353.894L431.072 353.606L430.743 355.578L432.471 355.866L432.8 353.894ZM431.895 354.748L432.759 349.276L430.784 348.964L429.92 354.436L431.895 354.748ZM431.63 350.11L434.654 350.542L434.937 348.562L431.913 348.13L431.63 350.11ZM435.722 349.928C440.733 337.593 444.923 324.587 448.294 310.911L446.352 310.433C443.003 324.021 438.842 336.935 433.869 349.176L435.722 349.928ZM448.295 310.91C451.664 297.144 454.024 283.996 455.374 271.467L453.385 271.253C452.046 283.684 449.703 296.744 446.352 310.434L448.295 310.91ZM454.432 272.359L459.904 272.071L459.799 270.073L454.327 270.361L454.432 272.359ZM440.456 351.267C447.194 351.941 452.846 352.28 457.403 352.28V350.28C452.937 350.28 447.356 349.947 440.655 349.277L440.456 351.267ZM457.403 352.28C461.57 352.28 465.502 352.038 469.198 351.551L468.937 349.569C465.337 350.042 461.493 350.28 457.403 350.28V352.28ZM470.054 350.398C467.652 335.79 463.809 315.09 458.528 288.303L456.566 288.689C461.846 315.47 465.683 336.146 468.081 350.722L470.054 350.398ZM456.56 288.335C453.212 308.807 447.567 329.332 439.622 349.912L441.488 350.632C449.48 329.932 455.162 309.273 458.534 288.657L456.56 288.335ZM571.441 272.656H570.441C570.441 272.667 570.441 272.679 570.442 272.69L571.441 272.656ZM571.441 369.712L570.442 369.665C570.442 369.68 570.441 369.696 570.441 369.712H571.441ZM570.721 370.432L570.65 371.429C570.674 371.431 570.697 371.432 570.721 371.432V370.432ZM566.689 370.144L566.76 369.147C566.737 369.145 566.713 369.144 566.689 369.144V370.144ZM565.969 369.424L564.97 369.377C564.97 369.392 564.969 369.408 564.969 369.424H565.969ZM566.257 280.432L567.257 280.402C567.244 279.992 566.983 279.632 566.598 279.492C566.213 279.352 565.782 279.462 565.509 279.768L566.257 280.432ZM536.449 307.504L536.04 308.417C536.36 308.56 536.731 308.525 537.018 308.326L536.449 307.504ZM489.505 278.56L490.114 277.767C489.816 277.538 489.414 277.495 489.074 277.658C488.735 277.82 488.515 278.159 488.506 278.535L489.505 278.56ZM490.513 369.136H491.513C491.513 369.118 491.513 369.1 491.512 369.082L490.513 369.136ZM489.793 369.856V368.856C489.769 368.856 489.746 368.857 489.722 368.859L489.793 369.856ZM485.761 370.144V371.144C485.785 371.144 485.809 371.143 485.832 371.141L485.761 370.144ZM485.041 369.424H486.041C486.041 369.405 486.041 369.387 486.04 369.368L485.041 369.424ZM484.321 272.08L485.321 272.11C485.321 272.1 485.321 272.09 485.321 272.08H484.321ZM485.041 271.36L485.102 270.362C485.082 270.361 485.061 270.36 485.041 270.36V271.36ZM489.793 271.648L490.417 270.867C490.256 270.738 490.059 270.662 489.854 270.65L489.793 271.648ZM535.729 301.168L535.298 302.07C535.628 302.228 536.016 302.193 536.313 301.98L535.729 301.168ZM565.969 272.224L565.909 271.226C565.635 271.242 565.381 271.37 565.204 271.58L565.969 272.224ZM570.721 271.936V270.936C570.701 270.936 570.681 270.937 570.661 270.938L570.721 271.936ZM570.442 272.69C571.114 292.458 571.449 309.535 571.449 323.92H573.449C573.449 309.505 573.113 292.406 572.441 272.622L570.442 272.69ZM571.449 323.92C571.449 340.226 571.114 355.475 570.442 369.665L572.44 369.759C573.113 355.533 573.449 340.254 573.449 323.92H571.449ZM570.441 369.712C570.441 369.798 570.42 369.679 570.554 369.545C570.688 369.411 570.807 369.432 570.721 369.432V371.432C571.115 371.432 571.595 371.333 571.968 370.959C572.342 370.585 572.441 370.106 572.441 369.712H570.441ZM570.793 369.435L566.76 369.147L566.618 371.141L570.65 371.429L570.793 369.435ZM566.689 369.144C566.603 369.144 566.723 369.123 566.856 369.257C566.99 369.391 566.969 369.51 566.969 369.424H564.969C564.969 369.818 565.068 370.297 565.442 370.671C565.816 371.045 566.295 371.144 566.689 371.144V369.144ZM566.968 369.471C567.641 355.245 567.977 339.917 567.977 323.488H565.977C565.977 339.891 565.642 355.187 564.97 369.377L566.968 369.471ZM567.977 323.488C567.977 310.612 567.737 296.25 567.257 280.402L565.258 280.462C565.737 296.294 565.977 310.636 565.977 323.488H567.977ZM565.509 279.768C555.663 290.857 545.786 299.824 535.88 306.682L537.018 308.326C547.081 301.36 557.075 292.279 567.005 281.096L565.509 279.768ZM536.858 306.591C522.162 300.007 506.581 290.404 490.114 277.767L488.896 279.353C505.454 292.06 521.169 301.753 536.04 308.417L536.858 306.591ZM488.506 278.535C488.217 290.063 488.073 301.399 488.073 312.544H490.073C490.073 301.417 490.217 290.097 490.505 278.585L488.506 278.535ZM488.073 312.544C488.073 332.624 488.554 351.506 489.515 369.19L491.512 369.082C490.553 351.438 490.073 332.592 490.073 312.544H488.073ZM489.513 369.136C489.513 369.222 489.492 369.103 489.626 368.969C489.76 368.835 489.879 368.856 489.793 368.856V370.856C490.187 370.856 490.667 370.757 491.04 370.383C491.414 370.009 491.513 369.53 491.513 369.136H489.513ZM489.722 368.859L485.69 369.147L485.832 371.141L489.864 370.853L489.722 368.859ZM485.761 369.144C485.675 369.144 485.795 369.123 485.928 369.257C486.062 369.391 486.041 369.51 486.041 369.424H484.041C484.041 369.818 484.14 370.297 484.514 370.671C484.888 371.045 485.367 371.144 485.761 371.144V369.144ZM486.04 369.368C485.081 352.205 484.601 333.792 484.601 314.128H482.601C482.601 333.824 483.082 352.275 484.043 369.48L486.04 369.368ZM484.601 314.128C484.601 301.949 484.841 287.943 485.321 272.11L483.322 272.05C482.841 287.897 482.601 301.923 482.601 314.128H484.601ZM485.321 272.08C485.321 271.994 485.342 272.113 485.208 272.247C485.075 272.381 484.955 272.36 485.041 272.36V270.36C484.647 270.36 484.168 270.459 483.794 270.833C483.42 271.207 483.321 271.686 483.321 272.08H485.321ZM484.981 272.358L489.733 272.646L489.854 270.65L485.102 270.362L484.981 272.358ZM489.169 272.429C504.96 285.043 520.336 294.927 535.298 302.07L536.16 300.266C521.362 293.201 506.114 283.405 490.417 270.867L489.169 272.429ZM536.313 301.98C546.285 294.816 556.424 285.105 566.734 272.868L565.204 271.58C554.97 283.727 544.95 293.312 535.146 300.356L536.313 301.98ZM566.03 273.222L570.782 272.934L570.661 270.938L565.909 271.226L566.03 273.222ZM570.721 272.936C570.807 272.936 570.688 272.957 570.554 272.823C570.42 272.689 570.441 272.57 570.441 272.656H572.441C572.441 272.262 572.342 271.783 571.968 271.409C571.595 271.035 571.115 270.936 570.721 270.936V272.936ZM631.454 296.848L630.516 297.193L630.52 297.204L631.454 296.848ZM622.094 330.832L622.677 331.645L622.683 331.64L622.094 330.832ZM589.838 340.48L589.776 339.482C589.238 339.516 588.823 339.97 588.839 340.509L589.838 340.48ZM589.838 369.28L588.839 369.248C588.839 369.258 588.838 369.269 588.838 369.28H589.838ZM588.974 370L588.864 370.994C588.901 370.998 588.937 371 588.974 371V370ZM585.086 369.568L585.197 368.574C585.16 368.57 585.123 368.568 585.086 368.568V369.568ZM584.51 369.424L583.616 369.871C583.713 370.065 583.87 370.222 584.063 370.318L584.51 369.424ZM584.366 368.848L583.367 368.817C583.367 368.827 583.366 368.838 583.366 368.848H584.366ZM583.502 311.68L582.503 311.719L582.503 311.725L583.502 311.68ZM581.054 271.648V270.648C580.774 270.648 580.506 270.766 580.316 270.973C580.127 271.18 580.033 271.457 580.058 271.737L581.054 271.648ZM581.198 271.648V272.648C581.229 272.648 581.259 272.647 581.289 272.644L581.198 271.648ZM605.678 274.816L605.349 275.76L605.354 275.762L605.678 274.816ZM622.094 284.032L621.437 284.786L621.446 284.794L622.094 284.032ZM589.838 335.008L588.839 335.03C588.845 335.303 588.962 335.561 589.162 335.745C589.363 335.929 589.63 336.023 589.902 336.006L589.838 335.008ZM618.062 326.944L618.628 327.769L618.636 327.763L618.062 326.944ZM626.27 298.576L625.326 298.906L625.33 298.916L626.27 298.576ZM618.206 287.92L618.836 287.143L618.206 287.92ZM603.806 280.144L603.466 281.084C603.471 281.086 603.476 281.088 603.48 281.089L603.806 280.144ZM586.958 276.976L586.975 275.976C586.693 275.971 586.421 276.086 586.228 276.293C586.035 276.499 585.938 276.778 585.962 277.06L586.958 276.976ZM630.52 297.204C632.016 301.13 632.758 305.042 632.758 308.944H634.758C634.758 304.782 633.965 300.63 632.389 296.492L630.52 297.204ZM632.758 308.944C632.758 317.524 629.047 324.531 621.506 330.024L622.683 331.64C630.694 325.805 634.758 318.22 634.758 308.944H632.758ZM621.512 330.019C613.941 335.44 603.394 338.625 589.776 339.482L589.901 341.478C603.739 340.607 614.695 337.36 622.677 331.645L621.512 330.019ZM588.839 340.509C588.934 343.854 588.982 348.786 588.982 355.312H590.982C590.982 348.782 590.934 343.826 590.838 340.451L588.839 340.509ZM588.982 355.312C588.982 361.646 588.934 366.289 588.839 369.248L590.838 369.312C590.934 366.319 590.982 361.65 590.982 355.312H588.982ZM588.838 369.28C588.838 369.302 588.835 369.276 588.856 369.224C588.879 369.165 588.922 369.102 588.982 369.052C589.038 369.005 589.082 368.992 589.085 368.991C589.086 368.991 589.078 368.993 589.059 368.996C589.04 368.998 589.012 369 588.974 369V371C589.377 371 589.864 370.92 590.263 370.588C590.696 370.227 590.838 369.727 590.838 369.28H588.838ZM589.085 369.006L585.197 368.574L584.976 370.562L588.864 370.994L589.085 369.006ZM585.086 368.568C585.067 368.568 585.027 368.564 584.958 368.53L584.063 370.318C584.377 370.476 584.722 370.568 585.086 370.568V368.568ZM585.405 368.977C585.37 368.907 585.366 368.867 585.366 368.848H583.366C583.366 369.213 583.459 369.557 583.616 369.871L585.405 368.977ZM585.366 368.879C585.462 365.791 585.51 360.929 585.51 354.304H583.51C583.51 360.927 583.462 365.761 583.367 368.817L585.366 368.879ZM585.51 354.304C585.51 340.656 585.174 326.432 584.501 311.635L582.503 311.725C583.175 326.496 583.51 340.688 583.51 354.304H585.51ZM584.502 311.641C583.925 296.749 583.108 283.387 582.05 271.559L580.058 271.737C581.113 283.525 581.928 296.851 582.503 311.719L584.502 311.641ZM581.054 272.648H581.198V270.648H581.054V272.648ZM581.289 272.644C582.299 272.552 583.799 272.504 585.806 272.504V270.504C583.782 270.504 582.21 270.552 581.108 270.652L581.289 272.644ZM585.806 272.504C592.61 272.504 599.122 273.59 605.349 275.76L606.007 273.872C599.562 271.626 592.827 270.504 585.806 270.504V272.504ZM605.354 275.762C611.68 277.934 617.035 280.945 621.437 284.786L622.752 283.278C618.13 279.247 612.541 276.114 606.003 273.87L605.354 275.762ZM621.446 284.794C625.851 288.542 628.857 292.678 630.516 297.193L632.393 296.503C630.596 291.61 627.362 287.202 622.742 283.27L621.446 284.794ZM589.902 336.006C602.096 335.232 611.704 332.517 618.628 327.769L617.497 326.119C610.981 330.587 601.773 333.248 589.775 334.01L589.902 336.006ZM618.636 327.763C625.593 322.893 629.142 316.505 629.142 308.656H627.142C627.142 315.783 623.971 321.587 617.489 326.125L618.636 327.763ZM629.142 308.656C629.142 305.263 628.493 301.788 627.211 298.236L625.33 298.916C626.543 302.276 627.142 305.521 627.142 308.656H629.142ZM627.214 298.246C625.794 294.188 622.973 290.492 618.836 287.143L617.577 288.697C621.504 291.876 624.059 295.284 625.327 298.906L627.214 298.246ZM618.836 287.143C614.702 283.796 609.796 281.152 604.132 279.199L603.48 281.089C608.953 282.976 613.647 285.516 617.577 288.697L618.836 287.143ZM604.147 279.204C598.48 277.152 592.755 276.074 586.975 275.976L586.941 277.976C592.49 278.07 597.997 279.104 603.466 281.084L604.147 279.204ZM585.962 277.06C587.4 294.219 588.359 313.542 588.839 335.03L590.838 334.986C590.358 313.466 589.397 294.101 587.955 276.892L585.962 277.06ZM673.039 271.072L674.02 270.877C673.923 270.39 673.483 270.047 672.986 270.073L673.039 271.072ZM690.319 369.136H691.319C691.319 369.112 691.318 369.087 691.316 369.063L690.319 369.136ZM689.599 369.856V368.856C689.575 368.856 689.551 368.857 689.528 368.859L689.599 369.856ZM685.567 370.144V371.144C685.591 371.144 685.614 371.143 685.638 371.141L685.567 370.144ZM684.847 369.424H685.847C685.847 369.396 685.846 369.369 685.843 369.341L684.847 369.424ZM683.119 356.032L684.107 355.876C684.022 355.343 683.53 354.973 682.995 355.04L683.119 356.032ZM651.583 355.6L651.688 354.606C651.254 354.56 650.84 354.801 650.666 355.201L651.583 355.6ZM645.247 369.28L646.141 369.727L646.145 369.72L645.247 369.28ZM644.815 369.712L644.368 368.818L644.815 369.712ZM644.239 369.712L643.75 370.585C643.764 370.592 643.778 370.599 643.792 370.606L644.239 369.712ZM640.639 367.696L640.039 368.496C640.074 368.523 640.112 368.547 640.15 368.569L640.639 367.696ZM640.351 366.832L641.183 367.387C641.209 367.347 641.233 367.306 641.253 367.263L640.351 366.832ZM645.823 354.88L646.741 355.277C646.863 354.995 646.848 354.672 646.701 354.402C646.554 354.132 646.291 353.944 645.987 353.894L645.823 354.88ZM644.095 354.592L643.107 354.436C643.021 354.978 643.389 355.488 643.93 355.578L644.095 354.592ZM644.959 349.12L645.1 348.13C644.559 348.053 644.056 348.424 643.971 348.964L644.959 349.12ZM647.983 349.552L647.841 350.542C648.296 350.607 648.736 350.354 648.909 349.928L647.983 349.552ZM660.511 310.672L661.482 310.911L661.482 310.91L660.511 310.672ZM667.567 271.36L667.514 270.361C667.024 270.387 666.625 270.765 666.573 271.253L667.567 271.36ZM653.743 350.272L652.81 349.912C652.698 350.203 652.728 350.53 652.891 350.796C653.055 351.062 653.333 351.236 653.643 351.267L653.743 350.272ZM682.255 350.56L682.385 351.551C682.654 351.516 682.896 351.373 683.058 351.156C683.219 350.939 683.286 350.665 683.242 350.398L682.255 350.56ZM670.735 288.496L671.716 288.303C671.622 287.828 671.202 287.488 670.719 287.496C670.235 287.504 669.826 287.857 669.748 288.335L670.735 288.496ZM672.058 271.267C682.72 324.864 688.463 357.478 689.322 369.209L691.316 369.063C690.447 357.178 684.67 324.416 674.02 270.877L672.058 271.267ZM689.319 369.136C689.319 369.222 689.298 369.103 689.432 368.969C689.565 368.835 689.685 368.856 689.599 368.856V370.856C689.993 370.856 690.472 370.757 690.846 370.383C691.22 370.009 691.319 369.53 691.319 369.136H689.319ZM689.528 368.859L685.496 369.147L685.638 371.141L689.67 370.853L689.528 368.859ZM685.567 369.144C685.481 369.144 685.6 369.123 685.734 369.257C685.868 369.391 685.847 369.51 685.847 369.424H683.847C683.847 369.818 683.946 370.297 684.32 370.671C684.693 371.045 685.173 371.144 685.567 371.144V369.144ZM685.843 369.341C685.553 365.851 684.973 361.36 684.107 355.876L682.131 356.188C682.993 361.648 683.565 366.085 683.85 369.507L685.843 369.341ZM682.995 355.04C679.98 355.417 676.042 355.608 671.167 355.608V357.608C676.083 357.608 680.113 357.415 683.243 357.024L682.995 355.04ZM671.167 355.608C664.48 355.608 657.987 355.274 651.688 354.606L651.477 356.594C657.85 357.27 664.414 357.608 671.167 357.608V355.608ZM650.666 355.201C648.752 359.602 646.647 364.149 644.349 368.84L646.145 369.72C648.455 365.003 650.573 360.43 652.5 355.999L650.666 355.201ZM644.352 368.833C644.351 368.836 644.351 368.836 644.352 368.834C644.354 368.832 644.356 368.828 644.36 368.825C644.363 368.821 644.366 368.819 644.369 368.817C644.371 368.816 644.371 368.816 644.368 368.818L645.262 370.606C645.648 370.414 645.949 370.113 646.141 369.727L644.352 368.833ZM644.368 368.818C644.394 368.804 644.45 368.784 644.527 368.784C644.604 368.784 644.66 368.804 644.686 368.818L643.792 370.606C644.265 370.843 644.789 370.843 645.262 370.606L644.368 368.818ZM644.727 368.839L641.127 366.823L640.15 368.569L643.75 370.585L644.727 368.839ZM641.239 366.896C641.189 366.858 641.172 366.838 641.173 366.84C641.175 366.842 641.204 366.877 641.228 366.948C641.253 367.024 641.263 367.117 641.247 367.212C641.232 367.303 641.199 367.363 641.183 367.387L639.519 366.277C639.279 366.637 639.17 367.1 639.33 367.58C639.47 368 639.771 368.295 640.039 368.496L641.239 366.896ZM641.253 367.263C643.369 362.839 645.199 358.843 646.741 355.277L644.905 354.483C643.375 358.021 641.557 361.993 639.449 366.401L641.253 367.263ZM645.987 353.894L644.259 353.606L643.93 355.578L645.658 355.866L645.987 353.894ZM645.083 354.748L645.947 349.276L643.971 348.964L643.107 354.436L645.083 354.748ZM644.817 350.11L647.841 350.542L648.124 348.562L645.1 348.13L644.817 350.11ZM648.909 349.928C653.92 337.593 658.111 324.587 661.482 310.911L659.54 310.433C656.191 324.021 652.029 336.935 647.056 349.176L648.909 349.928ZM661.482 310.91C664.851 297.144 667.212 283.996 668.561 271.467L666.573 271.253C665.234 283.684 662.89 296.744 659.54 310.434L661.482 310.91ZM667.619 272.359L673.091 272.071L672.986 270.073L667.514 270.361L667.619 272.359ZM653.643 351.267C660.382 351.941 666.034 352.28 670.591 352.28V350.28C666.124 350.28 660.544 349.947 653.842 349.277L653.643 351.267ZM670.591 352.28C674.757 352.28 678.689 352.038 682.385 351.551L682.124 349.569C678.525 350.042 674.68 350.28 670.591 350.28V352.28ZM683.242 350.398C680.839 335.79 676.997 315.09 671.716 288.303L669.754 288.689C675.033 315.47 678.871 336.146 681.268 350.722L683.242 350.398ZM669.748 288.335C666.4 308.807 660.755 329.332 652.81 349.912L654.676 350.632C662.667 329.932 668.35 309.273 671.722 288.657L669.748 288.335Z" fill="#7C6345"/>
</g>
<path d="M108 0L123.292 69.4364L184.368 30.9002L144.918 90.562L216 105.5L144.918 120.438L184.368 180.1L123.292 141.564L108 211L92.708 141.564L31.6325 180.1L71.0818 120.438L0 105.5L71.0818 90.562L31.6325 30.9002L92.708 69.4364L108 0Z" fill="#30972E"/>
<line x1="293.734" y1="198.704" x2="389.323" y2="132.986" stroke="#622F00" stroke-width="8"/>
<defs>
<filter id="filter0_d" x="75.0163" y="72.2488" width="359.454" height="371.043" filterUnits="userSpaceOnUse" color-interpolation-filters="sRGB">
<feFlood flood-opacity="0" result="BackgroundImageFix"/>
<feColorMatrix in="SourceAlpha" type="matrix" values="0 0 0 0 0 0 0 0 0 0 0 0 0 0 0 0 0 0 127 0"/>
<feOffset dy="4"/>
<feGaussianBlur stdDeviation="2"/>
<feColorMatrix type="matrix" values="0 0 0 0 0 0 0 0 0 0 0 0 0 0 0 0 0 0 0.25 0"/>
<feBlend mode="normal" in2="BackgroundImageFix" result="effect1_dropShadow"/>
<feBlend mode="normal" in="SourceGraphic" in2="effect1_dropShadow" result="shape"/>
</filter>
<filter id="filter1_d" x="361.752" y="270.072" width="333.567" height="109.36" filterUnits="userSpaceOnUse" color-interpolation-filters="sRGB">
<feFlood flood-opacity="0" result="BackgroundImageFix"/>
<feColorMatrix in="SourceAlpha" type="matrix" values="0 0 0 0 0 0 0 0 0 0 0 0 0 0 0 0 0 0 127 0"/>
<feOffset dy="4"/>
<feGaussianBlur stdDeviation="2"/>
<feColorMatrix type="matrix" values="0 0 0 0 0 0 0 0 0 0 0 0 0 0 0 0 0 0 0.25 0"/>
<feBlend mode="normal" in2="BackgroundImageFix" result="effect1_dropShadow"/>
<feBlend mode="normal" in="SourceGraphic" in2="effect1_dropShadow" result="shape"/>
</filter>
<linearGradient id="paint0_linear" x1="564.5" y1="211" x2="564.5" y2="430" gradientUnits="userSpaceOnUse">
<stop stop-color="#FF3D00"/>
<stop offset="1" stop-color="#FF4003" stop-opacity="0"/>
</linearGradient>
<linearGradient id="paint1_linear" x1="564.5" y1="211" x2="564.5" y2="430" gradientUnits="userSpaceOnUse">
<stop stop-color="#FDD1FB"/>
<stop offset="1" stop-color="#CA7878" stop-opacity="0"/>
</linearGradient>
</defs>
</svg>
